<svg xmlns="http://www.w3.org/2000/svg" width="997.644" height="757.167" viewBox="0 0 997.644 757.167">
  <g id="noun_Email_2068301" transform="translate(0 215.04) rotate(-14)" opacity="0.1">
    <g id="Group_142" data-name="Group 142">
      <path id="Path_596" data-name="Path 596" d="M888.88,48.484V510.24c0,25.4-23.088,48.484-50.793,48.484H48.484C23.088,558.724,0,535.637,0,510.24V48.484C0,23.088,23.088,0,48.484,0h789.6C865.792,0,888.88,23.088,888.88,48.484ZM50.793,99.277,415.58,353.243c18.47,11.544,39.249,11.544,55.411,0l367.1-253.966V50.793H50.793Zm787.293,60.028L470.991,415.58c-16.161,11.544-36.94,11.544-55.411,0L50.793,159.306V507.931H838.086Z" fill="#fff"/>
    </g>
  </g>
</svg>
