<svg xmlns="http://www.w3.org/2000/svg" xmlns:xlink="http://www.w3.org/1999/xlink" width="221.023" height="169.334" viewBox="0 0 221.023 169.334">
  <defs>
    <linearGradient id="linear-gradient" x1="0.5" y1="1" x2="0.5" gradientUnits="objectBoundingBox">
      <stop offset="0" stop-color="gray" stop-opacity="0.251"/>
      <stop offset="0.54" stop-color="gray" stop-opacity="0.122"/>
      <stop offset="1" stop-color="gray" stop-opacity="0.102"/>
    </linearGradient>
    <linearGradient id="linear-gradient-2" x1="3.193" x2="3.193" y2="0" xlink:href="#linear-gradient"/>
  </defs>
  <g id="undraw_onboarding_o8mv" transform="translate(0.004 0.003)">
    <path id="Path_473" data-name="Path 473" d="M35.263,129.019c-2.533.868-5.607,2.639-5.089,5.454a6.143,6.143,0,0,0,2.514,3.378,71.212,71.212,0,0,0,15.344,9.5c2.624,1.191,5.414,2.284,7.4,4.48s2.9,5.267,3.544,8.227a66.873,66.873,0,0,1,1.106,21.348c7.91.151,16.669-.027,22.266-5.725,3.351-3.413,5.147-8.475,9.088-11.116,2.628-1.761,5.866-2.2,8.995-2.566q22.21-2.6,44.651-3.144c6.268-.153,12.674-.207,18.527-2.392s11.166-6.961,12.355-13.436a5.229,5.229,0,0,1,.986-2.794,3.879,3.879,0,0,1,2.374-.884l51.41-6.961c2.815-.387,5.729-.8,8.1-2.39,2.293-1.547,3.84-4.018,5.319-6.427,3.389-5.514,6.907-12.181,4.559-18.486-1.877-5.039-6.924-7.941-11.746-9.743s-10.014-3.068-13.933-6.6c-5.963-5.375-7.286-14.3-8.966-22.305a130.591,130.591,0,0,0-6.381-21.247c-2.405-6.06-5.335-12.032-9.7-16.748s-10.373-8.059-16.487-7.819c-7.985.317-15.01,6.541-23.009,5.768-6.756-.648-12.253-6.062-18.336-9.43-10.8-5.984-23.544-5.458-35.36-3.592C92.261,15.346,79.655,18.8,69.5,26.572a19.866,19.866,0,0,0-5.9,6.508c-2.088,4.1-1.908,9.107-2.954,13.668-4.215,18.368-26.814,26.031-31.46,44.266-1.651,6.473-.429,13.494,2.6,19.476,3.258,6.441,9.8,9.186,13.158,14.714C42.7,127.252,38.233,128,35.263,129.019Z" transform="translate(-28.45 -12.11)" fill="#d6edf5"/>
    <path id="Path_497" data-name="Path 497" d="M285.63,57.83v136.4h98.107V57.83Z" transform="translate(-230.406 -46.651)" fill="url(#linear-gradient)"/>
    <rect id="Rectangle_129" data-name="Rectangle 129" width="96.386" height="5.199" transform="translate(56.085 12.376)" fill="#f6f7f9"/>
    <g id="Group_96" data-name="Group 96" transform="translate(56.085 12.376)">
      <rect id="Rectangle_130" data-name="Rectangle 130" width="96.386" height="5.199" fill="#d6edf5"/>
    </g>
    <rect id="Rectangle_131" data-name="Rectangle 131" width="96.386" height="128.809" transform="translate(56.085 17.575)" fill="#fff"/>
    <circle id="Ellipse_42" data-name="Ellipse 42" cx="0.882" cy="0.882" r="0.882" transform="translate(57.738 14.094)" fill="#f6f7f9"/>
    <circle id="Ellipse_43" data-name="Ellipse 43" cx="0.882" cy="0.882" r="0.882" transform="translate(60.128 14.094)" fill="#f6f7f9"/>
    <circle id="Ellipse_44" data-name="Ellipse 44" cx="0.882" cy="0.882" r="0.882" transform="translate(62.518 14.094)" fill="#f6f7f9"/>
    <g id="Group_97" data-name="Group 97" transform="translate(73.287 25.516)">
      <rect id="Rectangle_132" data-name="Rectangle 132" width="61.979" height="2.427" fill="#d6edf5"/>
    </g>
    <rect id="Rectangle_133" data-name="Rectangle 133" width="8.235" height="2.427" transform="translate(127.031 25.516)" fill="#2c4c66"/>
    <g id="Group_99" data-name="Group 99" transform="translate(65.275 75.107)">
      <rect id="Rectangle_138" data-name="Rectangle 138" width="78.006" height="27.937" fill="#d6edf5"/>
    </g>
    <g id="Group_102" data-name="Group 102" transform="translate(65.275 38.54)">
      <rect id="Rectangle_138-2" data-name="Rectangle 138" width="78.006" height="27.937" fill="#d6edf5"/>
    </g>
    <rect id="Rectangle_139" data-name="Rectangle 139" width="44.995" height="2.427" transform="translate(87.166 85.289)" fill="#f6f7f9"/>
    <rect id="Rectangle_147" data-name="Rectangle 147" width="44.995" height="2.427" transform="translate(87.166 48.722)" fill="#f6f7f9"/>
    <rect id="Rectangle_140" data-name="Rectangle 140" width="23.343" height="2.427" transform="translate(87.166 90.436)" fill="#f6f7f9"/>
    <rect id="Rectangle_146" data-name="Rectangle 146" width="23.343" height="2.427" transform="translate(87.166 53.869)" fill="#f6f7f9"/>
    <rect id="Rectangle_141" data-name="Rectangle 141" width="8.235" height="2.427" transform="translate(127.031 97.787)" fill="#2c4c66"/>
    <rect id="Rectangle_148" data-name="Rectangle 148" width="8.235" height="2.427" transform="translate(127.031 61.22)" fill="#2c4c66"/>
    <circle id="Ellipse_46" data-name="Ellipse 46" cx="4.41" cy="4.41" r="4.41" transform="translate(70.275 84.664)" fill="#f6f7f9"/>
    <circle id="Ellipse_48" data-name="Ellipse 48" cx="4.41" cy="4.41" r="4.41" transform="translate(70.275 48.098)" fill="#f6f7f9"/>
    <g id="Group_100" data-name="Group 100" transform="translate(65.275 110.875)">
      <rect id="Rectangle_142" data-name="Rectangle 142" width="78.006" height="27.937" fill="#d6edf5"/>
    </g>
    <rect id="Rectangle_143" data-name="Rectangle 143" width="44.995" height="2.427" transform="translate(87.166 121.057)" fill="#f6f7f9"/>
    <rect id="Rectangle_144" data-name="Rectangle 144" width="23.343" height="2.427" transform="translate(87.166 126.204)" fill="#f6f7f9"/>
    <rect id="Rectangle_145" data-name="Rectangle 145" width="8.235" height="2.427" transform="translate(127.031 133.555)" fill="#2c4c66"/>
    <circle id="Ellipse_47" data-name="Ellipse 47" cx="4.41" cy="4.41" r="4.41" transform="translate(70.275 120.432)" fill="#f6f7f9"/>
    <path id="Path_498" data-name="Path 498" d="M181.155,249.754c-.748,3.4-2.1,7.6-2.1,7.6,1.334,1.556,7.154,1.835,7.154,1.835l.01-.012h.091c.041.215.087.421.143.619q-.015.292-.029.592a1.614,1.614,0,0,0-.083.727,1.65,1.65,0,0,0,.043.162c-.139,3.082-.238,6.369-.153,8.268a7.957,7.957,0,0,0,.164,1.6,5.764,5.764,0,0,1,.17,1.228,55.382,55.382,0,0,1-.58,7.446s.017.064.027.1c-.012.079-.019.126-.019.126a2.2,2.2,0,0,1,.1.58c.05,2.343-1.294,7.442-1.294,7.442s-1.087,7.84-.932,10.828a6.892,6.892,0,0,0,.052.713c.333,2.485.773,9.422.773,9.422a3.118,3.118,0,0,0,.253.327c-.039.155-.085.311-.135.466a13.071,13.071,0,0,0-.648,4.857c.014.193.029.4.048.617.222,2.56,6.415.967,6.823.669a5.55,5.55,0,0,0-.151-2.208l6.381,1.576s4.524.669,6.676,0,2.077-2.514-1-2.817c-2.156-.209-3.867-2.216-4.712-3.4.327-.891,2.777-7.657,3.227-11.845a59.292,59.292,0,0,1,1.429-8.028l.481-6.232.855-3.674,1.019-4.857a48.96,48.96,0,0,0,1.5-9.515l.889-5.841a11.306,11.306,0,0,0,.207-1.926,21.587,21.587,0,0,1,2.465.659c1.392-1.083-.58-11.516-.58-11.516s-.949-6.589-1.754-12.6a12.31,12.31,0,0,1,3.84.157l11.684.257a5.938,5.938,0,0,0,.626-1.021h.5a1.073,1.073,0,0,0,.145-.282l.207.039a17.281,17.281,0,0,1,2.235.679,2.721,2.721,0,0,0,3.128-3.42c-.414-2.881-3.693-1.835-5.333-1.12l-.207.095c-.015-.108-.025-.17-.025-.17l-.528.1a2.558,2.558,0,0,0-.11-.236s-5.731-.222-10.377-.918a13.936,13.936,0,0,1-6.974-3.432c-.814-4.132-3.179-5.387-3.179-5.387a7.076,7.076,0,0,1-3.223-1.09,6.814,6.814,0,0,1-.754-.522l-.128.073-.015-.014c.787-.731,1.6-1.4,2.32-1.964l.323-.249a7.168,7.168,0,0,0,5.855-10.037c-.031-.07-.068-.139-.1-.207a1.609,1.609,0,0,0,1.419-1.4c.072-.81-.487-1.672-.122-2.4a2.332,2.332,0,0,0,.174-.338.915.915,0,0,0,.027-.34,2.4,2.4,0,0,0-.967-1.74c-.829-.6-1.566-.3-2.473-.348a29.856,29.856,0,0,1-3.119-.483,10.785,10.785,0,0,0-3.583-.118,4.617,4.617,0,0,0-3.028,1.773c-.294.422-.493.9-.773,1.338-.315.5-.723.938-1.085,1.406a4.264,4.264,0,0,0-1.054,2.724c.027.563.226,1.1.265,1.667a10.149,10.149,0,0,1-.116,1.566,6.856,6.856,0,0,0,.114,2,1.237,1.237,0,0,0,.228.568,1.212,1.212,0,0,0,.5.323,4.488,4.488,0,0,0,.617.193,8.834,8.834,0,0,1-.864,1.557l-.313-.325-.847,1.323-.033-.089c-.041.083-.087.162-.135.242l-.087-.242a5.084,5.084,0,0,1-1.9,1.9,17.8,17.8,0,0,1-5.308,1.968c-4.981.723-4.06,5.868-4.06,5.868s-2.113,9.18-2.707,14.855a15.849,15.849,0,0,0,1.613,9.291Zm23.753-16.779c.193.632.363,1.232.509,1.756l-.093.037c-.106-.485-.251-1.108-.41-1.792Zm-5.48-15.4-.027.017.025-.025ZM190.838,313.5c-.244-1.456-.607-3.214-.831-4.263.159-.516.369-1.305.617-2.479.557-2.632.889-11.943.889-11.943l1.3-7.823a25.8,25.8,0,0,0,1.446-6.574c.478-1.261,1.582-8.977,1.758-10.217-.05.857-.17,3.026-.234,5.435v.066c-.048,1.819-.062,3.77,0,5.389h0c.017.454.041.886.072,1.284.01.1.015.209.019.313.139,4.2-1.74,9.474-1.74,9.474a31.124,31.124,0,0,0-.713,6.1,4.026,4.026,0,0,0,.166,1.16,2.051,2.051,0,0,1,.095.538c.035,2.092-1.2,6.483-1.516,7.56A27.964,27.964,0,0,0,190.838,313.5Z" transform="translate(-149.535 -161.898)" fill="url(#linear-gradient-2)"/>
    <path id="Path_499" data-name="Path 499" d="M249.36,761.409s2.169,3.933,5.221,4.227,3.125,2.127.992,2.794-6.617,0-6.617,0l-6.4-1.58s.773-6.323,1.8-6.653S249.36,761.409,249.36,761.409Z" transform="translate(-201.164 -615.518)" fill="#2f516c"/>
    <path id="Path_500" data-name="Path 500" d="M213.972,765.107s1.618,7.278,1.214,7.574-6.543,1.874-6.767-.663c-.019-.211-.035-.416-.046-.611a12.885,12.885,0,0,1,.642-4.814,3.988,3.988,0,0,0,.249-1.485C209.158,764.086,213.972,765.107,213.972,765.107Z" transform="translate(-173.57 -619.15)" fill="#2f516c"/>
    <path id="Path_501" data-name="Path 501" d="M247.79,253.622s4.961,12.181,4.08,8.275c-.58-2.595,3.192-6.038,5.8-8.063,1.328-1.032,2.357-1.7,2.357-1.7s-9.32-10.863-8.658-6.176a7.057,7.057,0,0,1-.509,3.782A9.915,9.915,0,0,1,247.79,253.622Z" transform="translate(-205.383 -199.803)" fill="#ffb9b9"/>
    <path id="Path_502" data-name="Path 502" d="M411.77,361.065a2.852,2.852,0,0,1,1.135.072,16.753,16.753,0,0,1,2.214.673,2.69,2.69,0,0,0,3.094-3.389c-.41-2.858-3.658-1.821-5.284-1.11-.553.242-.92.447-.92.447Z" transform="translate(-337.657 -289.936)" fill="#ffb9b9"/>
    <path id="Path_503" data-name="Path 503" d="M411.77,364.335a2.852,2.852,0,0,1,1.135.072,10.671,10.671,0,0,0,.031-3.826c-.553.242-.92.447-.92.447Z" transform="translate(-337.657 -293.205)" opacity="0.1"/>
    <path id="Path_504" data-name="Path 504" d="M410.444,360.4l.955-.176s.491,3.287-.149,4.145h-1.1Z" transform="translate(-336.35 -292.915)" fill="#cbcdda"/>
    <path id="Path_505" data-name="Path 505" d="M309.261,389.393s2.923-1.74,3.272.458.81,5.975.81,5.975l.808,4.8,1.048,9.613-.147,1.636s-3.107-1.04-3.842-.681-1.324-4.033-1.324-4.033l-1.212-4.559-.193-9.668Z" transform="translate(-254.338 -315.92)" fill="#4c4c78"/>
    <path id="Path_506" data-name="Path 506" d="M309.261,389.393s2.923-1.74,3.272.458.81,5.975.81,5.975l.808,4.8,1.048,9.613-.147,1.636s-3.107-1.04-3.842-.681-1.324-4.033-1.324-4.033l-1.212-4.559-.193-9.668Z" transform="translate(-254.338 -315.92)" opacity="0.1"/>
    <path id="Path_507" data-name="Path 507" d="M320.65,333.56a14.04,14.04,0,0,0,7.637,4.109c4.6.69,10.284.909,10.284.909a4.985,4.985,0,0,1-.634,5.294l-11.58-.255a11.192,11.192,0,0,0-4.55,0Z" transform="translate(-264.155 -271.41)" fill="#4c4c78"/>
    <path id="Path_508" data-name="Path 508" d="M320.65,333.56a14.04,14.04,0,0,0,7.637,4.109c4.6.69,10.284.909,10.284.909a4.985,4.985,0,0,1-.634,5.294l-11.58-.255a11.192,11.192,0,0,0-4.55,0Z" transform="translate(-264.155 -271.41)" fill="#2f516c"/>
    <path id="Path_509" data-name="Path 509" d="M450.84,406.14" transform="translate(-369.173 -329.956)" fill="none" stroke="blue" stroke-miterlimit="10" stroke-width="1"/>
    <path id="Path_510" data-name="Path 510" d="M266.162,249.671c1.131,2.419,3.094,4.2,5.947,4.2h.371c1.328-1.032,2.357-1.7,2.357-1.7s-9.32-10.863-8.658-6.176A6.9,6.9,0,0,1,266.162,249.671Z" transform="translate(-220.19 -199.836)" opacity="0.1"/>
    <path id="Path_511" data-name="Path 511" d="M260.25,224.1a7.088,7.088,0,1,0,2.077-5.027A7.1,7.1,0,0,0,260.25,224.1Z" transform="translate(-215.434 -177.387)" fill="#ffb9b9"/>
    <path id="Path_512" data-name="Path 512" d="M237.8,326.816s15.843,1.4,16.435-.625-1.616-7.5-1.616-7.5l.708-7.647.027-.294s-1.98-8.272-1.914-8.925c.068-.594-3.2-7.541-3.867-8.954l-.122-.255-.126.073-.054.033-.773.452-3.068-.723-3.693-1.934-.35,21.153Z" transform="translate(-197.324 -236.692)" fill="#cbcdda"/>
    <path id="Path_513" data-name="Path 513" d="M277.559,302.509a1.263,1.263,0,0,1,1.508.791,11.142,11.142,0,0,0,.58,1.353l.423,2.514.773,3.97.568,17.6-.255,3.132-1.415-2.514-.257-16.435v-2.05a14.831,14.831,0,0,0-1.179-5.135l-.193-.462-1.232-1.58Z" transform="translate(-228.848 -246.333)" opacity="0.1"/>
    <path id="Path_514" data-name="Path 514" d="M278.683,301.369a1.263,1.263,0,0,1,1.508.791,11.147,11.147,0,0,0,.58,1.353l.423,2.514.773,3.97.57,17.6-.259,3.125-1.415-2.514-.257-16.435v-2.05a14.83,14.83,0,0,0-1.177-5.135l-.193-.462L278,302.546Z" transform="translate(-229.752 -245.413)" fill="#2f516c"/>
    <path id="Path_515" data-name="Path 515" d="M251.441,278s3.749,3.971,5.072,4.447c0,0-.661,3.014-1.323,3.6a54.614,54.614,0,0,0-4.64-4.337l-.58-1.429Z" transform="translate(-207.141 -226.592)" opacity="0.1"/>
    <path id="Path_516" data-name="Path 516" d="M251.441,276.9s3.749,3.971,5.072,4.447c0,0-.661,3.014-1.323,3.6a54.609,54.609,0,0,0-4.64-4.337l-.58-1.429Z" transform="translate(-207.141 -225.705)" fill="#cbcdda"/>
    <path id="Path_517" data-name="Path 517" d="M286.58,301.35l.039.1,1.2,3.221,2.146,6.083s.021.062.058.178c.356,1.106,2.27,7.11,2.647,8.856l.027-.294s-1.978-8.279-1.912-8.933c.068-.594-3.2-7.541-3.867-8.954-.106-.073-.193-.135-.247-.182Z" transform="translate(-236.673 -245.428)" opacity="0.1"/>
    <path id="Path_518" data-name="Path 518" d="M287.71,301.33l1.241,3.328,2.148,6.083s.021.062.058.178c.377,1.179,2.525,7.908,2.707,9.14.193,1.353,2.9,8.658,2.9,8.658l1.547,12.655c1.379-1.075-.58-11.408-.58-11.408s-2.206-15.329-2.728-20.428-3.351-6.607-3.351-6.607a7.019,7.019,0,0,1-3.194-1.081A6.817,6.817,0,0,1,287.71,301.33Z" transform="translate(-237.584 -245.412)" fill="#2f516c"/>
    <path id="Path_519" data-name="Path 519" d="M206.961,513.019c.331,2.463.773,9.339.773,9.339,1.547,2.32,4.963,1.065,4.963,1.065a15.8,15.8,0,0,0,.916-3.31c.551-2.61.884-11.837.884-11.837l1.288-7.755a25.572,25.572,0,0,0,1.433-6.506c.514-1.353,1.765-10.294,1.765-10.294a119.742,119.742,0,0,0-.193,12.241c.323,4.227-1.69,9.927-1.69,9.927s-1.141,5.331-.551,6.984-1.471,8.492-1.471,8.492c.184,1.986,6.029,1.176,6.029,1.176s2.757-7.388,3.235-11.837a58.754,58.754,0,0,1,1.417-7.958l.476-6.176.847-3.639,1.011-4.814a48.64,48.64,0,0,0,1.489-9.43l.882-5.789a18.331,18.331,0,0,0-.671-7.984c-.217-.76-.387-1.226-.387-1.226-.507.36-3.407.773-4.907,1.123a8.539,8.539,0,0,1-2.514.193,55.849,55.849,0,0,1-11.2-2.048l-.387-.116-.077.661-.182,1.578-.321,2.8s-.994,14.925-.406,16.947-.4,8.815-.4,8.815c.551,1.613-1.176,8.167-1.176,8.167S206.63,510.557,206.961,513.019Z" transform="translate(-172.402 -375.693)" opacity="0.1"/>
    <path id="Path_520" data-name="Path 520" d="M206.962,511.879c.331,2.463.773,9.339.773,9.339,1.547,2.32,4.963,1.065,4.963,1.065a15.8,15.8,0,0,0,.916-3.31c.551-2.61.884-11.837.884-11.837l1.288-7.755a25.574,25.574,0,0,0,1.433-6.506c.514-1.353,1.765-10.294,1.765-10.294a119.738,119.738,0,0,0-.193,12.241c.323,4.227-1.69,9.927-1.69,9.927s-1.141,5.331-.551,6.984-1.471,8.492-1.471,8.492c.184,1.986,6.029,1.176,6.029,1.176s2.757-7.388,3.235-11.837a58.75,58.75,0,0,1,1.417-7.958l.476-6.176.847-3.639,1.011-4.814a48.638,48.638,0,0,0,1.489-9.43l.882-5.791a18.326,18.326,0,0,0-.671-7.982c-.217-.76-.387-1.226-.387-1.226-.507.36-3.407.773-4.907,1.123a8.538,8.538,0,0,1-2.514.193,55.845,55.845,0,0,1-11.2-2.048l-.387-.116-.077.661-.182,1.578-.321,2.8s-.994,14.925-.406,16.947-.4,8.817-.4,8.817c.551,1.613-1.176,8.167-1.176,8.167S206.631,509.417,206.962,511.879Z" transform="translate(-172.403 -374.774)" fill="#444053"/>
    <path id="Path_521" data-name="Path 521" d="M260.25,224.062a7.088,7.088,0,0,0,.942,3.533,3.746,3.746,0,0,0,3.121-.752,15.3,15.3,0,0,0,1.419-1.76,10.338,10.338,0,0,1,1.015-1,3.143,3.143,0,0,1,.8-.58,1.087,1.087,0,0,1,.967-.012c.387.218.526.7.746,1.092a1.458,1.458,0,0,0,.814.71.862.862,0,0,0,.967-.331c.24-.414.064-1.06.468-1.311a2.433,2.433,0,0,1,.329-.133c.52-.236.58-.934.623-1.5a.94.94,0,0,1,.319-.748,1.438,1.438,0,0,1,.824-.068,1.161,1.161,0,0,0,.248-.021,7.1,7.1,0,0,0-13.6,2.879Z" transform="translate(-215.434 -177.347)" opacity="0.1"/>
    <path id="Path_522" data-name="Path 522" d="M270.309,201.577a2.359,2.359,0,0,1,.957,1.717.9.9,0,0,1-.025.338,2.519,2.519,0,0,1-.172.336c-.363.719.193,1.574.12,2.378a1.582,1.582,0,0,1-1.547,1.388,1.513,1.513,0,0,0-.824.068.917.917,0,0,0-.319.748c-.044.57-.1,1.268-.623,1.5a2.729,2.729,0,0,0-.329.135c-.4.251-.226.9-.468,1.309a.86.86,0,0,1-.967.333,1.466,1.466,0,0,1-.814-.71c-.222-.387-.356-.874-.746-1.092a1.092,1.092,0,0,0-.967.01,3.151,3.151,0,0,0-.8.58,10.565,10.565,0,0,0-1.015,1,14.949,14.949,0,0,1-1.421,1.76,3.951,3.951,0,0,1-4.022.5,1.23,1.23,0,0,1-.5-.319,1.249,1.249,0,0,1-.232-.572,6.871,6.871,0,0,1-.114-1.98,9.993,9.993,0,0,0,.116-1.547c-.037-.557-.236-1.094-.263-1.651a4.259,4.259,0,0,1,1.044-2.707c.36-.464.764-.9,1.075-1.392.271-.431.468-.909.76-1.326a4.645,4.645,0,0,1,3-1.758,10.5,10.5,0,0,1,3.552.116,29.225,29.225,0,0,0,3.094.48C268.757,201.273,269.488,200.969,270.309,201.577Z" transform="translate(-211.467 -164.09)" fill="#472727"/>
    <path id="Path_523" data-name="Path 523" d="M287.71,301.33l1.241,3.328,2.148,6.083s.021.062.058.178h0l-2.707-9.07A6.823,6.823,0,0,1,287.71,301.33Z" transform="translate(-237.584 -245.412)" opacity="0.1"/>
    <path id="Path_524" data-name="Path 524" d="M218.3,491.587s-.13,4.024.955,5.027l2.885-5.441L219.715,490Z" transform="translate(-181.591 -397.602)" fill="#ffb9b9"/>
    <path id="Path_525" data-name="Path 525" d="M183.48,326.282c1.324,1.547,7.084,1.819,7.084,1.819l5.71-8.987s1.353-.938,3.884-5.157a15.726,15.726,0,0,0,2.32-9.9,94.745,94.745,0,0,0-1.74-9.4c-.246-1.57-3.8-11.408-3.8-11.408a5.04,5.04,0,0,1-1.881,1.881,17.569,17.569,0,0,1-5.263,1.937c-4.936.717-4.026,5.818-4.026,5.818s-.06,19.832.249,22.2S183.48,326.282,183.48,326.282Z" transform="translate(-153.507 -230.827)" opacity="0.1"/>
    <path id="Path_526" data-name="Path 526" d="M189.49,480.273l.164,1.469,2.005-.735,1.469-2.224-1.1-.864Z" transform="translate(-152.854 -385.516)" fill="#cbcdda"/>
    <path id="Path_527" data-name="Path 527" d="M218.3,464.317l1.048.106,10.108,1.009a16.374,16.374,0,0,0,4.857-.238l4.685-.938c-.217-.76-.387-1.226-.387-1.226-.507.36-3.407.773-4.907,1.123a8.537,8.537,0,0,1-2.514.193,55.846,55.846,0,0,1-11.209-2.048l-.456.545Z" transform="translate(-181.595 -375.258)" opacity="0.1"/>
    <g id="Group_101" data-name="Group 101" transform="translate(34.482 86.926)" opacity="0.1">
      <path id="Path_528" data-name="Path 528" d="M322.75,466.136a1.043,1.043,0,0,0,.1-.056l.01.027Z" transform="translate(-300.332 -465.233)"/>
      <path id="Path_529" data-name="Path 529" d="M207.752,500.666s1.729-6.555,1.176-8.167c0,0,.994-6.792.4-8.815s.406-16.947.406-16.947l.327-2.8.193-1.578.077-.661s.131.043.387.116l.234.07-.054.259-.184,1.578-.327,2.8s-.992,14.923-.406,16.947-.4,8.815-.4,8.815c.551,1.613-1.176,8.167-1.176,8.167s-1.214,8.751-.884,11.214S208.3,521,208.3,521c1.127,1.694,3.256,1.481,4.319,1.243-.012.029-.019.044-.019.044s-3.418,1.249-4.963-1.065c0,0-.441-6.876-.773-9.339S207.752,500.666,207.752,500.666Z" transform="translate(-206.804 -461.7)"/>
      <path id="Path_530" data-name="Path 530" d="M250.607,597.922c-.58-1.653.553-6.984.553-6.984s2.019-5.7,1.688-9.927c-.137-1.761-.128-4.178-.07-6.4.47-2.862.916-6.062.916-6.062a117.81,117.81,0,0,0-.184,12.241c.333,4.229-1.69,9.927-1.69,9.927s-1.141,5.331-.551,6.984-1.471,8.492-1.471,8.492c.147,1.591,3.925,1.388,5.414,1.243l-.056.153s-5.845.81-6.027-1.176C249.138,606.414,251.195,599.573,250.607,597.922Z" transform="translate(-240.946 -547.89)"/>
    </g>
    <path id="Path_531" data-name="Path 531" d="M182.34,326.282c1.324,1.547,7.084,1.819,7.084,1.819l5.708-8.987s1.353-.938,3.886-5.157a15.713,15.713,0,0,0,2.32-9.9,94.754,94.754,0,0,0-1.74-9.4c-.246-1.57-3.8-11.408-3.8-11.408a5.04,5.04,0,0,1-1.881,1.881,17.585,17.585,0,0,1-5.261,1.937c-4.936.717-4.026,5.818-4.026,5.818s-.054,19.824.249,22.195S182.34,326.282,182.34,326.282Z" transform="translate(-152.588 -230.827)" fill="#2f516c"/>
    <path id="Path_532" data-name="Path 532" d="M243.007,288.124l1.241.468-.828.58,6.172,14.888c-.143-2.427-1.74-9.4-1.74-9.4-.246-1.57-3.8-11.408-3.8-11.408a5.04,5.04,0,0,1-1.881,1.881Z" transform="translate(-200.85 -230.827)" opacity="0.1"/>
    <path id="Path_533" data-name="Path 533" d="M180.562,426.736l-6.315-1.626-.828,2.564,6.452,1.572Z" transform="translate(-139.892 -342.917)" opacity="0.1"/>
    <path id="Path_534" data-name="Path 534" d="M188.584,312.35s2.867,2.707,1.792,8.712-2.811,12.545-2.811,12.545l4.669,12.931s-3.254,3.391-4.853,3.8L182.722,340a15.8,15.8,0,0,1-1.6-9.207c.578-5.623,2.674-14.724,2.674-14.724S183.787,310.53,188.584,312.35Z" transform="translate(-151.527 -254.005)" opacity="0.1"/>
    <path id="Path_535" data-name="Path 535" d="M187.408,312.35s2.867,2.707,1.792,8.712-2.811,12.545-2.811,12.545l4.654,12.931s-3.248,3.391-4.851,3.8L181.532,340a15.8,15.8,0,0,1-1.6-9.207c.578-5.623,2.674-14.724,2.674-14.724S182.607,310.53,187.408,312.35Z" transform="translate(-150.567 -254.005)" fill="#2f516c"/>
    <path id="Path_536" data-name="Path 536" d="M222.91,492.035s-3.639,5.027-3.362,6.381,1.342.625,1.342.625l1.44-1.968,1.288-3.674S223.49,491.818,222.91,492.035Z" transform="translate(-182.589 -399.227)" opacity="0.1"/>
    <path id="Path_537" data-name="Path 537" d="M225.232,492.035s-3.641,5.027-3.364,6.381,1.342.625,1.342.625l1.433-1.966,1.288-3.674S225.8,491.818,225.232,492.035Z" transform="translate(-184.46 -399.227)" opacity="0.1"/>
    <path id="Path_538" data-name="Path 538" d="M224.09,492.035s-3.639,5.027-3.362,6.381,1.342.625,1.342.625l1.433-1.966,1.288-3.674S224.664,491.818,224.09,492.035Z" transform="translate(-183.541 -399.227)" fill="#474463"/>
  </g>
</svg>
