<svg xmlns="http://www.w3.org/2000/svg" xmlns:xlink="http://www.w3.org/1999/xlink" width="225.428" height="168.617" viewBox="0 0 225.428 168.617">
  <defs>
    <linearGradient id="linear-gradient" x1="0.5" y1="1" x2="0.5" gradientUnits="objectBoundingBox">
      <stop offset="0" stop-color="gray" stop-opacity="0.251"/>
      <stop offset="0.54" stop-color="gray" stop-opacity="0.122"/>
      <stop offset="1" stop-color="gray" stop-opacity="0.102"/>
    </linearGradient>
    <linearGradient id="linear-gradient-2" x1="0.5" y1="1" x2="0.5" y2="-0.001" xlink:href="#linear-gradient"/>
    <linearGradient id="linear-gradient-3" x1="0.499" y1="1" x2="0.499" y2="-0.001" xlink:href="#linear-gradient"/>
    <linearGradient id="linear-gradient-4" x1="0.5" y1="1" x2="0.5" y2="0" xlink:href="#linear-gradient"/>
    <linearGradient id="linear-gradient-5" x1="0.5" y1="1" x2="0.5" y2="0" xlink:href="#linear-gradient"/>
    <linearGradient id="linear-gradient-6" x1="0.5" y1="1" x2="0.5" y2="0" xlink:href="#linear-gradient"/>
    <linearGradient id="linear-gradient-7" x1="0.5" y1="0.995" x2="0.5" y2="0" xlink:href="#linear-gradient"/>
    <linearGradient id="linear-gradient-8" x1="0.5" y1="0.999" x2="0.5" y2="0.001" xlink:href="#linear-gradient"/>
    <linearGradient id="linear-gradient-9" x1="0.5" y1="0.998" x2="0.5" y2="0" xlink:href="#linear-gradient"/>
    <linearGradient id="linear-gradient-10" x1="0.5" y1="1" x2="0.5" y2="0" xlink:href="#linear-gradient"/>
    <linearGradient id="linear-gradient-11" x1="0.5" y1="1" x2="0.5" y2="0" xlink:href="#linear-gradient"/>
    <linearGradient id="linear-gradient-12" x1="0.5" y1="1" x2="0.5" y2="0" xlink:href="#linear-gradient"/>
    <linearGradient id="linear-gradient-13" x1="0.5" y1="0.999" x2="0.5" y2="-0.001" xlink:href="#linear-gradient"/>
    <linearGradient id="linear-gradient-14" x1="0.5" y1="1" x2="0.5" y2="0" xlink:href="#linear-gradient"/>
    <linearGradient id="linear-gradient-15" x1="0.5" y1="1" x2="0.5" y2="-0.002" xlink:href="#linear-gradient"/>
    <linearGradient id="linear-gradient-16" x1="0.5" y1="0.998" x2="0.5" y2="-0.002" xlink:href="#linear-gradient"/>
    <linearGradient id="linear-gradient-17" x1="0.498" y1="1" x2="0.498" y2="0" xlink:href="#linear-gradient"/>
    <linearGradient id="linear-gradient-18" x1="0.499" y1="0.999" x2="0.499" y2="-0.002" xlink:href="#linear-gradient"/>
    <linearGradient id="linear-gradient-19" x1="0.5" y1="1" x2="0.5" y2="0.001" xlink:href="#linear-gradient"/>
    <linearGradient id="linear-gradient-20" x1="0.5" y1="1" x2="0.5" y2="0" xlink:href="#linear-gradient"/>
    <linearGradient id="linear-gradient-21" x1="0.498" y1="1.001" x2="0.498" y2="0" xlink:href="#linear-gradient"/>
    <linearGradient id="linear-gradient-22" x1="0.498" y1="1" x2="0.498" y2="0" xlink:href="#linear-gradient"/>
    <linearGradient id="linear-gradient-23" x1="0.511" y1="1.001" x2="0.511" y2="0" xlink:href="#linear-gradient"/>
    <linearGradient id="linear-gradient-24" x1="0.5" y1="1.001" x2="0.5" y2="0.006" xlink:href="#linear-gradient"/>
    <linearGradient id="linear-gradient-25" x1="0.5" y1="1" x2="0.5" y2="0" xlink:href="#linear-gradient"/>
    <linearGradient id="linear-gradient-26" x1="0.5" y1="0.984" x2="0.5" y2="0" xlink:href="#linear-gradient"/>
    <linearGradient id="linear-gradient-27" x1="0.5" y1="1" x2="0.5" y2="0" xlink:href="#linear-gradient"/>
    <linearGradient id="linear-gradient-28" x1="0.5" y1="1" x2="0.5" y2="0" xlink:href="#linear-gradient"/>
    <linearGradient id="linear-gradient-29" x1="0.497" y1="1" x2="0.497" y2="0" xlink:href="#linear-gradient"/>
    <linearGradient id="linear-gradient-30" x1="0.499" y1="1" x2="0.499" y2="0" xlink:href="#linear-gradient"/>
    <linearGradient id="linear-gradient-31" x1="0.5" y1="0.999" x2="0.5" y2="-0.001" xlink:href="#linear-gradient"/>
    <linearGradient id="linear-gradient-32" x1="0.501" y1="1" x2="0.501" y2="0" xlink:href="#linear-gradient"/>
    <linearGradient id="linear-gradient-33" x1="0.501" y1="1" x2="0.501" y2="0" xlink:href="#linear-gradient"/>
    <linearGradient id="linear-gradient-34" x1="0.5" y1="1.001" x2="0.5" y2="0" xlink:href="#linear-gradient"/>
    <linearGradient id="linear-gradient-35" x1="0.5" y1="1.001" x2="0.5" y2="0.001" xlink:href="#linear-gradient"/>
  </defs>
  <g id="undraw_setup_wizard_r6mr" transform="translate(0 -0.001)">
    <path id="Path_288" data-name="Path 288" d="M213.673,77.013c-13.832-.486-27.005-5.025-39.585-9.99s-25.039-10.472-38.54-13.093c-8.683-1.694-18.615-1.933-25.61,2.8-6.73,4.552-8.91,12.418-10.079,19.7-.881,5.486-1.4,11.26,1.013,16.4,1.676,3.566,4.646,6.563,6.7,9.977,7.153,11.886,2.1,26.54-5.653,38.143-3.633,5.442-7.854,10.641-10.66,16.429s-4.1,12.433-1.648,18.344c2.432,5.864,8.23,10.259,14.511,13.354,12.757,6.287,27.783,8.085,42.446,9.106,32.449,2.254,65.068,1.279,97.6.3,12.041-.36,24.133-.728,35.977-2.619,6.578-1.051,13.368-2.719,18.145-6.745a15.61,15.61,0,0,0,3.5-20.171c-6.813-10.748-25.646-13.417-30.414-24.95-2.62-6.35.071-13.421,3.881-19.308,8.173-12.633,21.87-23.715,22.59-38.152.5-9.916-6.089-19.847-16.27-24.54-10.671-4.919-25.471-4.3-33.34,3.84C240.133,74.218,225.882,77.445,213.673,77.013Z" transform="translate(-84.755 -52.82)" fill="#d6edf5"/>
    <rect id="Rectangle_94" data-name="Rectangle 94" width="47.845" height="47.845" transform="translate(0 27.883)" fill="#e8e9ed"/>
    <rect id="Rectangle_95" data-name="Rectangle 95" width="47.845" height="47.845" transform="translate(177.583 27.883)" fill="#e8e9ed"/>
    <path id="Path_289" data-name="Path 289" d="M188.746,82.542l-.477-.489a.1.1,0,0,0-.076-.033.1.1,0,0,0-.076.033l-3.3,3.319-1.2-1.2a.1.1,0,0,0-.151,0l-.481.481a.107.107,0,0,0,0,.155l1.515,1.514a.474.474,0,0,0,.315.155.5.5,0,0,0,.315-.149h0l3.619-3.63a.116.116,0,0,0,0-.155Z" transform="translate(-161.941 -76.636)" fill="#3acc6c" opacity="0.5"/>
    <path id="Path_290" data-name="Path 290" d="M173.849,64.348a4.865,4.865,0,1,1-3.444,1.425,4.865,4.865,0,0,1,3.444-1.425m0-.758a5.625,5.625,0,1,0,3.981,1.647A5.629,5.629,0,0,0,173.849,63.59Z" transform="translate(-149.927 -61.604)" fill="#2f516c" opacity="0.4"/>
    <path id="Path_291" data-name="Path 291" d="M382.539,167.276l-.6-.616a.125.125,0,0,0-.094-.041.122.122,0,0,0-.1.041l-4.154,4.185-1.514-1.512a.129.129,0,0,0-.094-.041.133.133,0,0,0-.1.041l-.607.607a.133.133,0,0,0,0,.194l1.906,1.9a.6.6,0,0,0,.4.194.633.633,0,0,0,.395-.184h0l4.554-4.58a.146.146,0,0,0,0-.184Z" transform="translate(-309.905 -145.638)" fill="#3acc6c" opacity="0.8"/>
    <path id="Path_292" data-name="Path 292" d="M363.775,144.363a6.13,6.13,0,1,1-4.336,1.8,6.13,6.13,0,0,1,4.336-1.8m0-.953a7.085,7.085,0,1,0,7.085,7.085A7.085,7.085,0,0,0,363.775,143.41Z" transform="translate(-294.997 -126.708)" fill="#2f516c" opacity="0.67"/>
    <path id="Path_293" data-name="Path 293" d="M976.339,64.348a4.865,4.865,0,1,1-3.444,1.425,4.865,4.865,0,0,1,3.444-1.425m0-.758a5.625,5.625,0,1,0,3.981,1.647A5.629,5.629,0,0,0,976.339,63.59Z" transform="translate(-774.834 -61.604)" fill="#2f516c" opacity="0.5"/>
    <path id="Path_294" data-name="Path 294" d="M772.166,144.363a6.122,6.122,0,1,0,.009,0m0-.953a7.1,7.1,0,1,1-.009,0Z" transform="translate(-615.817 -126.708)" fill="#2f516c" opacity="0.8"/>
    <path id="Path_295" data-name="Path 295" d="M556.888,203.981a8.1,8.1,0,1,1-5.734,2.373,8.1,8.1,0,0,1,5.734-2.373m0-1.261a9.368,9.368,0,1,0,9.368,9.368,9.368,9.368,0,0,0-9.368-9.368Z" transform="translate(-444.533 -170.287)" fill="#2f516c"/>
    <rect id="Rectangle_96" data-name="Rectangle 96" width="53.319" height="53.319" transform="translate(40.426 43.709)" fill="#f3f5f7"/>
    <rect id="Rectangle_97" data-name="Rectangle 97" width="53.319" height="53.319" transform="translate(131.369 43.709)" fill="#f3f5f7"/>
    <rect id="Rectangle_98" data-name="Rectangle 98" width="17.784" height="1.976" transform="translate(4.781 36.055)" opacity="0.1"/>
    <rect id="Rectangle_99" data-name="Rectangle 99" width="17.784" height="1.976" transform="translate(186.193 36.055)" opacity="0.1"/>
    <rect id="Rectangle_100" data-name="Rectangle 100" width="17.784" height="1.976" transform="translate(47.065 53.85)" opacity="0.1"/>
    <rect id="Rectangle_101" data-name="Rectangle 101" width="10.618" height="1.976" transform="translate(84.82 73.888)" opacity="0.1"/>
    <rect id="Rectangle_102" data-name="Rectangle 102" width="15.723" height="1.976" transform="translate(85.151 89.186)" opacity="0.1"/>
    <rect id="Rectangle_103" data-name="Rectangle 103" width="17.784" height="1.976" transform="translate(47.065 61.884)" opacity="0.1"/>
    <rect id="Rectangle_104" data-name="Rectangle 104" width="17.784" height="1.976" transform="translate(140.414 53.85)" opacity="0.1"/>
    <rect id="Rectangle_105" data-name="Rectangle 105" width="17.784" height="1.976" transform="translate(140.414 61.884)" opacity="0.1"/>
    <path id="Path_319" data-name="Path 319" d="M584.66,242.7l.5-.653a2.581,2.581,0,0,0,1.792.737c.841,0,1.464-.411,1.464-1.077,0-.723-.6-1.2-2.253-1.2v-.75c1.475,0,2.028-.485,2.028-1.125,0-.579-.5-.94-1.232-.94a2.371,2.371,0,0,0-1.541.631l-.529-.631a3.224,3.224,0,0,1,2.111-.82c1.274,0,2.212.612,2.212,1.685,0,.756-.553,1.25-1.35,1.523v.041a1.76,1.76,0,0,1,1.569,1.633c0,1.165-1.106,1.864-2.411,1.864A3.2,3.2,0,0,1,584.66,242.7Z" transform="translate(-474.843 -197.553)" fill="#2f516c"/>
    <g id="Group_66" data-name="Group 66" transform="translate(153.507 20.683)" opacity="0.8">
      <path id="Path_320" data-name="Path 320" d="M792.851,167.087c0-.354.031-.806.05-1.16h-.046c-.2.313-.433.625-.64.937l-1.475,1.892h3.916v.761H789.73v-.645L792.671,165h1.082v6.156h-.9Z" transform="translate(-789.73 -165)" fill="#2f516c"/>
    </g>
    <g id="Group_67" data-name="Group 67" transform="translate(199.589 5.633)" opacity="0.5">
      <path id="Path_321" data-name="Path 321" d="M990.85,87.3l.334-.455a1.735,1.735,0,0,0,1.208.5.959.959,0,0,0,1.06-.935c0-.581-.411-.894-1.021-.894a1.561,1.561,0,0,0-.87.256l-.347-.223.14-2.177h2.581v.6h-1.973l-.109,1.193a1.814,1.814,0,0,1,.765-.162,1.362,1.362,0,0,1,1.536,1.4,1.564,1.564,0,0,1-1.68,1.525,2.266,2.266,0,0,1-1.624-.619Z" transform="translate(-990.85 -83.37)" fill="#507087"/>
    </g>
    <rect id="Rectangle_106" data-name="Rectangle 106" width="65.909" height="65.909" transform="translate(78.606 66.609)" fill="#bbdcf8"/>
    <rect id="Rectangle_107" data-name="Rectangle 107" width="65.909" height="65.909" transform="translate(81.323 62.612)" fill="#fff"/>
    <rect id="Rectangle_108" data-name="Rectangle 108" width="52.102" height="1.976" transform="translate(88.198 65.054)" fill="#2f516c" opacity="0.5"/>
    <rect id="Rectangle_109" data-name="Rectangle 109" width="33.177" height="1.976" transform="translate(86.443 81.537)" opacity="0.1"/>
    <rect id="Rectangle_110" data-name="Rectangle 110" width="32.19" height="1.976" transform="translate(86.363 96.837)" opacity="0.1"/>
    <rect id="Rectangle_111" data-name="Rectangle 111" width="43.881" height="1.976" transform="translate(87.382 104.486)" opacity="0.1"/>
    <path id="Path_322" data-name="Path 322" d="M684.3,436.1l-.227-.234a.055.055,0,0,0-.037-.015.05.05,0,0,0-.035.015l-1.573,1.586-.573-.573a.059.059,0,0,0-.037-.015.054.054,0,0,0-.035.015l-.23.23a.052.052,0,0,0,0,.074l.723.721a.191.191,0,0,0,.3,0h0l1.724-1.731A.059.059,0,0,0,684.3,436.1Z" transform="translate(-551.269 -354.387)" fill="#3acc6c" opacity="0.5"/>
    <path id="Path_323" data-name="Path 323" d="M677.194,427.41a2.323,2.323,0,1,1-1.641.68,2.323,2.323,0,0,1,1.641-.68m0-.36a2.683,2.683,0,1,0,2.681,2.681,2.682,2.682,0,0,0-2.681-2.681Z" transform="translate(-545.504 -347.215)" fill="#3acc6c" opacity="0.5"/>
    <path id="Path_324" data-name="Path 324" d="M684.3,508.047l-.227-.232a.048.048,0,0,0-.037-.015.044.044,0,0,0-.035.015l-1.573,1.584-.573-.572a.052.052,0,0,0-.037-.017.048.048,0,0,0-.035.017l-.23.229a.052.052,0,0,0,0,.074l.723.723a.23.23,0,0,0,.151.074.242.242,0,0,0,.149-.072h0l1.724-1.733A.059.059,0,0,0,684.3,508.047Z" transform="translate(-551.269 -411.035)" fill="#3acc6c" opacity="0.5"/>
    <path id="Path_325" data-name="Path 325" d="M677.194,499.369a2.323,2.323,0,1,1-1.641.68,2.323,2.323,0,0,1,1.641-.68m0-.369a2.683,2.683,0,1,0,2.681,2.682A2.682,2.682,0,0,0,677.194,499Z" transform="translate(-545.504 -403.816)" fill="#3acc6c" opacity="0.5"/>
    <ellipse id="Ellipse_29" data-name="Ellipse 29" cx="13.166" cy="2.209" rx="13.166" ry="2.209" transform="translate(95.543 164.2)" fill="#6c63ff" opacity="0.1"/>
    <path id="Path_338" data-name="Path 338" d="M554.306,451.809c-.123-.253-1.106-3.5-1.106-3.5l-1.893-4.806s-1.149-6.326-2.863-4.747.922,5.365.922,5.365a18.409,18.409,0,0,1,1.027,3.319,12.782,12.782,0,0,0,.6,2.581l-.214,1.165c-.278-.018-.459-.018-.459-.018s-.17.243-.332.26a.153.153,0,0,1-.081-.011,4.514,4.514,0,0,0-1.106-.066,2.478,2.478,0,0,1-.828-.266c-.107-.214-.712-.341-1.248-.413a10.822,10.822,0,0,1-1.06-3.059,1.322,1.322,0,0,1,.162-.833,1.043,1.043,0,0,1,.122-.151c.149-.151.332-.284.5-.424.083-.07.159-.142.23-.216a3.536,3.536,0,0,0-.092-4.939c-1.475-1.691-8.127-5.328-10.14-2.212a3.519,3.519,0,0,0-.369,1.421,5.926,5.926,0,0,1-1.589,3.134,10.25,10.25,0,0,0-1.927,2.168l-.013-.03a2.147,2.147,0,0,0-.2.553c-.194.979.466,1.921.813,2.874a5.162,5.162,0,0,1,.254,1l.022-.21a6.5,6.5,0,0,1,.087,1.475c-2.415.494-2.417,4.657-2.417,4.657a14.458,14.458,0,0,0-.247,2.251c.05.592.05,1.886.05,2.2s-.3,2.251-.332,2.483c-.042.256-.5,1.484.6,1.761.076.02.157.037.24.052.046.994.133,3.079.057,3.54a23.17,23.17,0,0,0,.728,3.5,8.3,8.3,0,0,0,.737,1.189,1.292,1.292,0,0,1-.168.481c-.168.245-.081.446.2.533q-.013.127-.033.288a14.823,14.823,0,0,0,0,4.312,10.966,10.966,0,0,1,.446,1.986,1.475,1.475,0,0,0,.173.7,14.568,14.568,0,0,1,.5,2.93c0,.372.844,3.724.6,4.519a4.87,4.87,0,0,0-.05,1.912,16.455,16.455,0,0,1-.323,2.384,60.155,60.155,0,0,0,.024,8.988c.273,1.763.448,3.228.448,3.228a6.976,6.976,0,0,0-.026,1.844c.159.23.422,1.565.223,1.639s-.3.621-.3.621a5.446,5.446,0,0,0,.339.463,1.891,1.891,0,0,1-.225-.1c.079.112.2.267.341.437l-.135,1.785a.3.3,0,0,0,.221.313,2.478,2.478,0,0,0,2.467-.7c1.241-1.267,1.659-1.091,1.888-1.862.022-.083.044-.162.061-.24a.806.806,0,0,0-1.141-.9,5.858,5.858,0,0,0,.081-1.508,22.623,22.623,0,0,1-.1-2.607l-.173-9.034a12.319,12.319,0,0,1,.7-2.482,10.782,10.782,0,0,0,.323-3.134l.422-8,.42-3.872s.4-1.34.892.149a29.515,29.515,0,0,0-.147,3.724,33.233,33.233,0,0,1,.173,4.991c-.123.771-.671,4.991-.323,6.058a9.916,9.916,0,0,1,.645,2.78c-.074.422-.323,9.587-.323,9.587s.669,1.763.173,2.334-.024,2.856-.024,2.856.059.042.162.1l-.015.184L541.2,512.6a.3.3,0,0,0,.221.313,2.482,2.482,0,0,0,2.467-.7c1.241-1.267,1.659-1.093,1.888-1.862.022-.083.044-.164.063-.241a.808.808,0,0,0-1.3-.8.17.17,0,0,1-.028.024c-.031.028-.065.052-.1.076l-.048.031a6.9,6.9,0,0,0,.219-1.993,15.387,15.387,0,0,1,.124-2.707,20.525,20.525,0,0,0,.737-3.4c.017-.968.2-7.743.2-7.743s-.024-3.153.076-3.921.892-7.424,1.687-9.4a22.648,22.648,0,0,0,.721-7.375c-.009-.1-.018-.184-.028-.28a2.952,2.952,0,0,0,1.075-1.932,10.225,10.225,0,0,0-1.755-2.45,3.348,3.348,0,0,1-1.027-2.517,1.308,1.308,0,0,0-.3-.892s-.4-1.291-.664-1.423a.185.185,0,0,1-.057-.044c-.184-.2-.042-.75-.042-.75v-.017a4.586,4.586,0,0,0,.16-1.176,8.473,8.473,0,0,1,.033-1.324,10.672,10.672,0,0,0,.531-3.376,1.161,1.161,0,0,1,1.291-1.359l4.294-.044h.489a3.6,3.6,0,0,0,.553-.592,1.184,1.184,0,0,0,.949-.232A2.988,2.988,0,0,0,554.306,451.809Zm-19.969,12.906.031-.756.168.144a1.209,1.209,0,0,1,0,.6.645.645,0,0,1-.369.42.417.417,0,0,0-.061.037l-.042-.431c.175-.011.273-.02.273-.02Z" transform="translate(-430.707 -344.506)" opacity="0.1"/>
    <path id="Path_339" data-name="Path 339" d="M627.885,454.511s2.445,1.573,3.37.737a2.992,2.992,0,0,0,.686-2.7c-.125-.254-1.121-3.527-1.121-3.527l-1.923-4.845s-1.169-6.377-2.913-4.794.94,5.407.94,5.407a17.954,17.954,0,0,1,1.043,3.348,12.405,12.405,0,0,0,.612,2.605Z" transform="translate(-506.746 -355.772)" fill="url(#linear-gradient)"/>
    <path id="Path_340" data-name="Path 340" d="M593.31,826.336c-.018.079-.039.16-.065.243-.227.776-.656.6-1.917,1.877a2.532,2.532,0,0,1-2.507.7.3.3,0,0,1-.225-.315l.159-2.07.076-1s2.008.564,3.031-.149c.033-.024.066-.048.1-.076l.029-.024a.82.82,0,0,1,1.322.807Z" transform="translate(-477.943 -660.751)" fill="url(#linear-gradient-2)"/>
    <path id="Path_341" data-name="Path 341" d="M559.147,822.091c-.017.079-.039.16-.063.243-.227.776-.656.6-1.917,1.877a2.539,2.539,0,0,1-2.507.706.3.3,0,0,1-.225-.317l.157-2.07.077-1s2.008.564,3.029-.149c.035-.024.066-.048.1-.076l.03-.024a.819.819,0,0,1,1.32.808Z" transform="translate(-451.056 -657.288)" fill="url(#linear-gradient-3)"/>
    <g id="Group_68" data-name="Group 68" transform="translate(103 165.072)" opacity="0.1">
      <path id="Path_342" data-name="Path 342" d="M556.118,827.992l.083,1.075c-1.154,1.143-2.526-.553-2.931-1.117A4.851,4.851,0,0,0,556.118,827.992Z" transform="translate(-553.27 -827.95)" fill="url(#linear-gradient-4)"/>
    </g>
    <g id="Group_69" data-name="Group 69" transform="translate(110.711 164.877)" opacity="0.1">
      <path id="Path_343" data-name="Path 343" d="M592.412,827.565l.153-.1a2.175,2.175,0,0,1-3.1.572l.076-1s2.008.564,3.031-.149C592.485,827.279,592.412,827.565,592.412,827.565Z" transform="translate(-589.46 -826.89)" fill="url(#linear-gradient-5)"/>
    </g>
    <path id="Path_344" data-name="Path 344" d="M557.09,629.244c-.807,2-1.615,8.711-1.716,9.488s-.076,3.955-.076,3.955l-.21,7.81a21.1,21.1,0,0,1-.756,3.429,15.379,15.379,0,0,0-.127,2.729,9.228,9.228,0,0,1-.328,2.454l.153-.1c-1.263,1.9-3.256.474-3.256.474s-.479-2.3.024-2.878-.175-2.352-.175-2.352.251-9.237.328-9.663a9.367,9.367,0,0,0-.656-2.8c-.369-1.077.2-5.332.328-6.108a32.34,32.34,0,0,0-.184-5.031,28.523,28.523,0,0,1,.151-3.756c-.505-1.5-.909-.149-.909-.149l-.4,3.931-.415,8.07a10.7,10.7,0,0,1-.328,3.153,12.252,12.252,0,0,0-.706,2.5l.184,9.111a22.285,22.285,0,0,0,.1,2.629,10.794,10.794,0,0,1-.278,2.6c-1.412,3.3-3.687-.275-3.687-.275s.1-.553.3-.627-.076-1.427-.227-1.659a7.314,7.314,0,0,1,.024-1.844s-.175-1.475-.454-3.256a60.193,60.193,0,0,1-.026-9.062,16.551,16.551,0,0,0,.328-2.4,4.891,4.891,0,0,1,.052-1.928c.253-.8-.607-4.18-.607-4.556a15.241,15.241,0,0,0-.505-2.95,1.474,1.474,0,0,1-.184-.7,11.072,11.072,0,0,0-.455-2,14.322,14.322,0,0,1,0-4.347c.044-.4.081-.66.081-.66s14.486-2.329,15.066-1.8a2.263,2.263,0,0,1,.278,1.154A22.673,22.673,0,0,1,557.09,629.244Z" transform="translate(-440.627 -493.755)" fill="url(#linear-gradient-6)"/>
    <g id="Group_70" data-name="Group 70" transform="translate(111.437 146.704)" opacity="0.1">
      <path id="Path_345" data-name="Path 345" d="M593.15,728.361a13.512,13.512,0,0,0,2.255.017C596,728.259,593.15,728.361,593.15,728.361Z" transform="translate(-593.15 -728.32)" fill="url(#linear-gradient-7)"/>
    </g>
    <g id="Group_71" data-name="Group 71" transform="translate(111.572 147.679)" opacity="0.1">
      <path id="Path_346" data-name="Path 346" d="M593.79,733.609s2.212.383,2.323.184S593.79,733.609,593.79,733.609Z" transform="translate(-593.79 -733.609)" fill="url(#linear-gradient-8)"/>
    </g>
    <g id="Group_72" data-name="Group 72" transform="translate(103.76 147.279)" opacity="0.1">
      <path id="Path_347" data-name="Path 347" d="M557.2,731.44a6.124,6.124,0,0,1,1.766.334C559.589,732.058,557.2,731.44,557.2,731.44Z" transform="translate(-557.2 -731.44)" fill="url(#linear-gradient-9)"/>
    </g>
    <path id="Path_348" data-name="Path 348" d="M534.66,579.035s.184,3.488.085,4.1a23.568,23.568,0,0,0,.737,3.538,10.169,10.169,0,0,0,1.06,1.619l.992-6.925L537.3,579Z" transform="translate(-435.622 -466.313)" fill="url(#linear-gradient-10)"/>
    <ellipse id="Ellipse_31" data-name="Ellipse 31" cx="3.886" cy="3.855" rx="3.886" ry="3.855" transform="translate(106.958 85.179)" fill="url(#linear-gradient-11)"/>
    <path id="Path_349" data-name="Path 349" d="M569.049,481.3a15.286,15.286,0,0,1-2.423,3.455c-1.211,1.1,7.268,2.353,7.469,2.353s-1.514-5.006-1.211-5.607S569.049,481.3,569.049,481.3Z" transform="translate(-460.342 -389.741)" fill="url(#linear-gradient-12)"/>
    <g id="Group_73" data-name="Group 73" transform="translate(101.78 120.808)" opacity="0.1">
      <path id="Path_350" data-name="Path 350" d="M558.586,621.747a2.519,2.519,0,0,1-.623.347c-1.547.6-3.23,1.436-4.375,1.106a12.166,12.166,0,0,0-3.566,0,43.042,43.042,0,0,0-5.855-.168,1.892,1.892,0,0,1-1.007.026c.044-.4.081-.66.081-.66s14.486-2.328,15.066-1.8A2.215,2.215,0,0,1,558.586,621.747Z" transform="translate(-543.16 -620.518)" fill="url(#linear-gradient-13)"/>
    </g>
    <path id="Path_351" data-name="Path 351" d="M551.482,518.582a2.814,2.814,0,0,1-1.683,2.27c-1.549.61-3.23,1.436-4.375,1.106a12.164,12.164,0,0,0-3.566,0A43.041,43.041,0,0,0,536,521.79c-.975.234-1.475-.066-1.178-.5a6.615,6.615,0,0,0,.271-2.469c0-.6-.337-3.038-.035-3.472s.571-2.1,1.178-2.369a.654.654,0,0,0,.378-.424,1.193,1.193,0,0,0,0-.61s-.1-.083-.243-.208c-.356-.315-.961-.9-.767-1.093.269-.267,0-2,0-2s-.64-1.335-.4-1.834-2.052-3.134-2.052-3.134,0-4.539,2.766-4.74c0,0,1.951.068,2.187-.8s1.783-1.37,1.783-1.37l3.532.769s3.134.667,3.7.267,1.01.533,1.01.533,1.951.1,2.153.5-.64,4.3-.64,4.3a1.177,1.177,0,0,0-1.313,1.37,10.686,10.686,0,0,1-.538,3.4,7.92,7.92,0,0,0-.033,1.335,4.273,4.273,0,0,1-.164,1.185v.017s-.14.553.042.758a.277.277,0,0,0,.059.044c.269.133.673,1.434.673,1.434a1.315,1.315,0,0,1,.3.9,3.366,3.366,0,0,0,1.042,2.537A10.127,10.127,0,0,1,551.482,518.582Z" transform="translate(-433.288 -399.942)" fill="url(#linear-gradient-14)"/>
    <path id="Path_352" data-name="Path 352" d="M533.456,540.283v.142l-.063,1.562a13.138,13.138,0,0,1-3.2-.118c-1.128-.284-.651-1.517-.607-1.775h0c.033-.234.336-2.187.336-2.5s0-1.619-.05-2.212a14.569,14.569,0,0,1,.253-2.27l.218-.267,2.373.9Z" transform="translate(-431.445 -430.049)" fill="url(#linear-gradient-15)"/>
    <g id="Group_74" data-name="Group 74" transform="translate(98.003 110.443)" opacity="0.1">
      <path id="Path_353" data-name="Path 353" d="M533.436,572.532l-.063,1.562a13.136,13.136,0,0,1-3.2-.118c-1.128-.284-.651-1.517-.607-1.775Z" transform="translate(-529.432 -572.2)" fill="url(#linear-gradient-16)"/>
    </g>
    <g id="Group_75" data-name="Group 75" transform="translate(103.065 110.177)" opacity="0.1">
      <path id="Path_354" data-name="Path 354" d="M550.923,572.989a1.193,1.193,0,0,0,0-.61s-.1-.083-.243-.208c1.783-.245,8.839-1.208,11.217-1.311v.017s-.14.553.042.758Z" transform="translate(-550.68 -570.86)" fill="url(#linear-gradient-17)"/>
    </g>
    <g id="Group_76" data-name="Group 76" transform="translate(114.167 114.161)" opacity="0.1">
      <path id="Path_355" data-name="Path 355" d="M607.585,589s.437,2.454-1.195,3.319A7.456,7.456,0,0,0,607.585,589Z" transform="translate(-606.39 -589)" fill="url(#linear-gradient-18)"/>
    </g>
    <g id="Group_77" data-name="Group 77" transform="translate(103.485 117.358)" opacity="0.1">
      <path id="Path_356" data-name="Path 356" d="M554.92,605.8s3.936-.667,4.711-.151S554.92,605.8,554.92,605.8Z" transform="translate(-554.92 -605.458)" fill="url(#linear-gradient-19)"/>
    </g>
    <g id="Group_78" data-name="Group 78" transform="translate(113.539 100.488)" opacity="0.1">
      <path id="Path_357" data-name="Path 357" d="M604.055,524.88s-.6,2.469-.151,3.036S604.055,524.88,604.055,524.88Z" transform="translate(-603.735 -524.88)" fill="url(#linear-gradient-20)"/>
    </g>
    <g id="Group_79" data-name="Group 79" transform="translate(100.744 98.061)" opacity="0.1">
      <path id="Path_358" data-name="Path 358" d="M543.516,513.92a2.434,2.434,0,0,1,.219,1.87C543.4,516.737,543.516,513.92,543.516,513.92Z" transform="translate(-543.497 -513.92)" fill="url(#linear-gradient-21)"/>
    </g>
    <path id="Path_359" data-name="Path 359" d="M537.4,557.55s.706.419.47,1.069S537.4,557.55,537.4,557.55Z" transform="translate(-437.939 -450.294)" fill="url(#linear-gradient-22)"/>
    <g id="Group_80" data-name="Group 80" transform="translate(99.391 105.041)" opacity="0.1">
      <path id="Path_360" data-name="Path 360" d="M537,547.23s.656.352.737.868S537,547.23,537,547.23Z" transform="translate(-537 -547.23)" fill="url(#linear-gradient-23)"/>
    </g>
    <g id="Group_81" data-name="Group 81" transform="translate(110.921 127.365)" opacity="0.1">
      <path id="Path_361" data-name="Path 361" d="M589.78,653.043s4.122.419,4.947-.553A24.775,24.775,0,0,1,589.78,653.043Z" transform="translate(-589.78 -652.49)" fill="url(#linear-gradient-24)"/>
    </g>
    <g id="Group_82" data-name="Group 82" transform="translate(102.725 127.722)" opacity="0.1">
      <path id="Path_362" data-name="Path 362" d="M551.18,654.23s4.425,1.034,5.3.216C556.479,654.446,552.677,654.73,551.18,654.23Z" transform="translate(-551.18 -654.23)" fill="url(#linear-gradient-25)"/>
    </g>
    <g id="Group_83" data-name="Group 83" transform="translate(111.127 129.493)" opacity="0.1">
      <path id="Path_363" data-name="Path 363" d="M591.51,662.83s1.844,0,2.708.05S591.51,662.83,591.51,662.83Z" transform="translate(-591.51 -662.83)" fill="url(#linear-gradient-26)"/>
    </g>
    <g id="Group_84" data-name="Group 84" transform="translate(102.849 130.489)" opacity="0.1">
      <path id="Path_364" data-name="Path 364" d="M552.82,667.08a2.46,2.46,0,0,0,1.934.835C555.779,667.733,552.82,667.08,552.82,667.08Z" transform="translate(-552.82 -667.08)" fill="url(#linear-gradient-27)"/>
    </g>
    <path id="Path_365" data-name="Path 365" d="M544.17,435.544a3.4,3.4,0,0,0-.369,1.433,5.958,5.958,0,0,1-1.615,3.169c-.807.852-1.916,1.622-2.124,2.662-.2.988.474,1.938.826,2.9.922,2.535-.369,5.192-.747,7.808-.1.723.022,1.646.922,1.886a5.315,5.315,0,0,1,.852.184,1.015,1.015,0,0,1,.505.795,12.1,12.1,0,0,1,.23,3.269,1.8,1.8,0,0,0,.5,1.744,2.973,2.973,0,0,0,.97.383c.922.247,2.115.444,2.736-.133.262-.242.369-.584.684-.776.487-.286,1.178-.092,1.792-.063a3.254,3.254,0,0,0,2.915-1.552,4.129,4.129,0,0,0,.269-2.852,17.739,17.739,0,0,1-.525-2.865,1.659,1.659,0,0,1,.218-.972c.369-.575,1.248-.837,1.844-1.291a2.89,2.89,0,0,0,.708-3.4,15,15,0,0,1-1.226-3.477,1.32,1.32,0,0,1,.166-.841,3.28,3.28,0,0,1,.678-.631,3.52,3.52,0,0,0,.09-5.148C552.972,436.066,546.207,432.4,544.17,435.544Z" transform="translate(-438.912 -350.849)" fill="url(#linear-gradient-28)"/>
    <g id="Group_85" data-name="Group 85" transform="translate(101.056 89.014)" opacity="0.1">
      <path id="Path_366" data-name="Path 366" d="M540.872,482.072a6.282,6.282,0,0,0-.256-3.009c-.184-.485-.437-.968-.623-1.453a2.061,2.061,0,0,0-.2.553c-.2.986.474,1.936.826,2.9A5.246,5.246,0,0,1,540.872,482.072Z" transform="translate(-539.754 -474.797)" fill="url(#linear-gradient-29)"/>
      <path id="Path_367" data-name="Path 367" d="M542.769,539.463a12.039,12.039,0,0,0-.232-3.269,1.017,1.017,0,0,0-.5-.795,5,5,0,0,0-.854-.184,1.164,1.164,0,0,1-.785-.645c-.05.254-.1.509-.133.761-.105.723.02,1.646.922,1.886a5.385,5.385,0,0,1,.854.184,1.018,1.018,0,0,1,.5.795,12.015,12.015,0,0,1,.218,1.51C542.755,539.627,542.769,539.544,542.769,539.463Z" transform="translate(-540.143 -521.255)" fill="url(#linear-gradient-30)"/>
      <path id="Path_368" data-name="Path 368" d="M563.46,555.737a3.252,3.252,0,0,1-2.913,1.552c-.614-.029-1.305-.223-1.792.063-.325.184-.424.535-.684.776-.621.577-1.814.38-2.736.133a2.95,2.95,0,0,1-.97-.383,1.191,1.191,0,0,1-.477-.771c0,.343,0,.688-.022,1.031a1.8,1.8,0,0,0,.5,1.742,2.948,2.948,0,0,0,.97.383c.922.249,2.115.444,2.736-.133.26-.242.369-.583.684-.774.487-.288,1.178-.094,1.792-.063a3.249,3.249,0,0,0,2.913-1.554,4.031,4.031,0,0,0,.291-2.74A2.983,2.983,0,0,1,563.46,555.737Z" transform="translate(-551.247 -537.919)" fill="url(#linear-gradient-31)"/>
      <path id="Path_369" data-name="Path 369" d="M613.8,463.834a3.288,3.288,0,0,0-.68.631,1.322,1.322,0,0,0-.164.841,4.345,4.345,0,0,0,.23,1.071,4.609,4.609,0,0,1,.614-.54,3.221,3.221,0,0,0,1.014-3.486A3.2,3.2,0,0,1,613.8,463.834Z" transform="translate(-599.449 -462.35)" fill="url(#linear-gradient-32)"/>
      <path id="Path_370" data-name="Path 370" d="M606.674,510.861c-.6.452-1.475.714-1.844,1.291a1.647,1.647,0,0,0-.218.972,6.689,6.689,0,0,0,.144,1.161,1.312,1.312,0,0,1,.074-.131c.369-.573,1.246-.837,1.844-1.291a2.76,2.76,0,0,0,.8-3.094A2.337,2.337,0,0,1,606.674,510.861Z" transform="translate(-592.65 -501.027)" fill="url(#linear-gradient-33)"/>
    </g>
    <path id="Path_371" data-name="Path 371" d="M626.749,509.7a5.9,5.9,0,0,1-1.582,2.419h-.5l-4.366.044L619.8,510.8l.708-2.95.435.028a2.525,2.525,0,0,0,.841.267,4.662,4.662,0,0,1,1.127.066.145.145,0,0,0,.083.011c.164-.017.339-.262.339-.262S627.438,507.968,626.749,509.7Z" transform="translate(-502.311 -410.876)" fill="url(#linear-gradient-34)"/>
    <g id="Group_86" data-name="Group 86" transform="translate(120.912 97.072)" opacity="0.1">
      <path id="Path_372" data-name="Path 372" d="M640.884,510.129a5.9,5.9,0,0,1-1.582,2.419h-.5a22.9,22.9,0,0,1,1.018-2.424c.214-.325-1.624-1.077-2.694-1.492.164-.017.339-.262.339-.262S641.573,508.392,640.884,510.129Z" transform="translate(-637.13 -508.37)" fill="url(#linear-gradient-35)"/>
    </g>
    <path id="Path_373" data-name="Path 373" d="M627.366,457.681s2.4,1.56,3.319.726a2.953,2.953,0,0,0,.675-2.679c-.124-.253-1.106-3.5-1.106-3.5l-1.893-4.806s-1.149-6.326-2.863-4.747.922,5.365.922,5.365a18.408,18.408,0,0,1,1.027,3.319,12.78,12.78,0,0,0,.6,2.581Z" transform="translate(-506.379 -358.364)" fill="#efb7b9"/>
    <path id="Path_374" data-name="Path 374" d="M593.345,826.494c-.018.077-.041.159-.063.241-.225.769-.647.6-1.888,1.862a2.482,2.482,0,0,1-2.467.7.3.3,0,0,1-.221-.313l.155-2.054.076-.988s1.976.553,2.981-.149c.033-.024.066-.048.1-.076a.172.172,0,0,0,.028-.024.807.807,0,0,1,1.3.8Z" transform="translate(-478.035 -660.885)" fill="#2f516c"/>
    <path id="Path_375" data-name="Path 375" d="M559.7,822.292c-.017.077-.039.157-.061.24-.225.771-.647.6-1.888,1.862a2.478,2.478,0,0,1-2.467.7.3.3,0,0,1-.221-.313l.155-2.054.076-.988s1.976.553,2.981-.149a1.16,1.16,0,0,0,.1-.074l.028-.026a.808.808,0,0,1,1.3.8Z" transform="translate(-451.558 -657.458)" fill="#2f516c"/>
    <path id="Path_376" data-name="Path 376" d="M556.752,828.159l.081,1.067c-1.134,1.132-2.485-.553-2.883-1.106A4.781,4.781,0,0,0,556.752,828.159Z" transform="translate(-450.809 -663.017)" opacity="0.1"/>
    <path id="Path_377" data-name="Path 377" d="M592.456,827.719l.149-.1a2.13,2.13,0,0,1-3.055.566l.076-.988s1.976.553,2.981-.149C592.527,827.435,592.456,827.719,592.456,827.719Z" transform="translate(-478.824 -662.144)" opacity="0.1"/>
    <path id="Path_378" data-name="Path 378" d="M557.746,630.888c-.795,1.986-1.589,8.639-1.687,9.4s-.076,3.921-.076,3.921l-.2,7.743a21.333,21.333,0,0,1-.737,3.4,15.336,15.336,0,0,0-.124,2.707,9.154,9.154,0,0,1-.323,2.434l.149-.1c-1.241,1.886-3.2.472-3.2.472s-.472-2.284.024-2.856-.173-2.334-.173-2.334.249-9.161.323-9.587a9.953,9.953,0,0,0-.645-2.78c-.347-1.068.2-5.289.323-6.058a33.484,33.484,0,0,0-.173-4.991,29.887,29.887,0,0,1,.148-3.724c-.5-1.49-.892-.149-.892-.149l-.4,3.9-.43,8a10.8,10.8,0,0,1-.323,3.134,12.381,12.381,0,0,0-.693,2.474l.173,9.034a22.628,22.628,0,0,0,.1,2.607,10.891,10.891,0,0,1-.273,2.581c-1.39,3.276-3.625-.273-3.625-.273s.1-.553.3-.621-.074-1.416-.223-1.639a7.4,7.4,0,0,1,.026-1.844s-.184-1.466-.448-3.228a61.439,61.439,0,0,1-.024-8.988,16.465,16.465,0,0,0,.323-2.384,4.869,4.869,0,0,1,.05-1.912c.249-.795-.6-4.146-.6-4.519a15.254,15.254,0,0,0-.5-2.93,1.474,1.474,0,0,1-.173-.7,10.96,10.96,0,0,0-.446-1.986,14.328,14.328,0,0,1,0-4.312c.044-.4.081-.654.081-.654s14.251-2.308,14.823-1.786a2.286,2.286,0,0,1,.273,1.145A23.011,23.011,0,0,1,557.746,630.888Z" transform="translate(-441.359 -494.601)" fill="#444053"/>
    <path id="Path_379" data-name="Path 379" d="M593.19,729.324a13.232,13.232,0,0,0,2.212.017C595.976,729.225,593.19,729.324,593.19,729.324Z" transform="translate(-481.748 -582.403)" opacity="0.1"/>
    <path id="Path_380" data-name="Path 380" d="M593.82,734.529s2.168.382,2.284.184S593.82,734.529,593.82,734.529Z" transform="translate(-482.245 -586.681)" opacity="0.1"/>
    <path id="Path_381" data-name="Path 381" d="M557.82,732.38a6.007,6.007,0,0,1,1.737.33C560.169,732.99,557.82,732.38,557.82,732.38Z" transform="translate(-453.93 -584.928)" opacity="0.1"/>
    <path id="Path_382" data-name="Path 382" d="M535.64,581.223s.184,3.459.083,4.071a23.175,23.175,0,0,0,.728,3.5,10.156,10.156,0,0,0,1.044,1.606l.977-6.862-.231-2.351Z" transform="translate(-436.396 -468.044)" fill="#efb7b9"/>
    <ellipse id="Ellipse_32" data-name="Ellipse 32" cx="3.824" cy="3.824" rx="3.824" ry="3.824" transform="translate(107.036 85.865)" fill="#efb7b9"/>
    <path id="Path_383" data-name="Path 383" d="M569.468,484.283a15.132,15.132,0,0,1-2.384,3.426c-1.193,1.093,7.152,2.334,7.351,2.334s-1.49-4.967-1.193-5.562S569.468,484.283,569.468,484.283Z" transform="translate(-460.713 -392.09)" fill="#efb7b9"/>
    <path id="Path_384" data-name="Path 384" d="M559.177,623.571a2.5,2.5,0,0,1-.612.345c-1.523.6-3.179,1.423-4.3,1.091a11.676,11.676,0,0,0-3.5,0,42.253,42.253,0,0,0-5.76-.166,1.856,1.856,0,0,1-1,.02c.044-.4.081-.654.081-.654s14.251-2.308,14.823-1.786A2.263,2.263,0,0,1,559.177,623.571Z" transform="translate(-442.059 -501.149)" opacity="0.1"/>
    <path id="Path_385" data-name="Path 385" d="M552.174,521.22a2.776,2.776,0,0,1-1.659,2.251c-1.527.592-3.178,1.423-4.3,1.093a11.742,11.742,0,0,0-3.5,0,41.957,41.957,0,0,0-5.76-.166c-.966.232-1.457-.066-1.16-.5a6.489,6.489,0,0,0,.266-2.448c0-.6-.332-3.013-.033-3.444s.553-2.085,1.16-2.351a.645.645,0,0,0,.369-.42,1.209,1.209,0,0,0,0-.6s-.1-.083-.24-.206c-.35-.313-.944-.894-.752-1.084.264-.266,0-1.987,0-1.987s-.63-1.324-.4-1.82-2.028-3.112-2.028-3.112,0-4.5,2.716-4.7c0,0,1.919.066,2.152-.795s1.755-1.357,1.755-1.357l3.475.761s3.079.662,3.641.265.986.527.986.527,1.919.1,2.118.5-.629,4.27-.629,4.27a1.161,1.161,0,0,0-1.291,1.359,10.672,10.672,0,0,1-.531,3.376,7.979,7.979,0,0,0-.033,1.324,4.33,4.33,0,0,1-.16,1.176v.017s-.136.553.042.75a.187.187,0,0,0,.057.044c.266.131.664,1.423.664,1.423a1.307,1.307,0,0,1,.3.892,3.348,3.348,0,0,0,1.027,2.517A10.249,10.249,0,0,1,552.174,521.22Z" transform="translate(-434.081 -402.164)" fill="#2f516c"/>
    <path id="Path_386" data-name="Path 386" d="M534.517,542.749v.14l-.061,1.549a12.692,12.692,0,0,1-3.134-.116c-1.106-.282-.642-1.5-.6-1.761.033-.232.332-2.17.332-2.483s0-1.606-.05-2.2a14.4,14.4,0,0,1,.247-2.251l.216-.266,2.334.894Z" transform="translate(-432.346 -432.037)" fill="#2f516c"/>
    <path id="Path_387" data-name="Path 387" d="M534.487,574.748l-.061,1.549a12.689,12.689,0,0,1-3.134-.116c-1.106-.282-.642-1.5-.6-1.761Z" transform="translate(-432.323 -463.507)" fill="#2f516c" opacity="0.1"/>
    <path id="Path_388" data-name="Path 388" d="M551.6,575.262a1.208,1.208,0,0,0,0-.6s-.1-.083-.24-.206c1.755-.243,8.7-1.2,11.036-1.291v.017s-.136.553.042.75Z" transform="translate(-448.163 -462.497)" opacity="0.1"/>
    <path id="Path_389" data-name="Path 389" d="M607.384,591.06s.431,2.434-1.174,3.295A7.389,7.389,0,0,0,607.384,591.06Z" transform="translate(-492.083 -476.463)" opacity="0.1"/>
    <path id="Path_390" data-name="Path 390" d="M555.57,607.768s3.872-.662,4.635-.149S555.57,607.768,555.57,607.768Z" transform="translate(-451.952 -489.649)" opacity="0.1"/>
    <path id="Path_391" data-name="Path 391" d="M603.916,527.5s-.6,2.45-.149,3.013S603.916,527.5,603.916,527.5Z" transform="translate(-490.091 -426.456)" opacity="0.1"/>
    <path id="Path_392" data-name="Path 392" d="M544.345,516.64a2.377,2.377,0,0,1,.216,1.853C544.224,519.437,544.345,516.64,544.345,516.64Z" transform="translate(-443.405 -418.002)" opacity="0.1"/>
    <path id="Path_393" data-name="Path 393" d="M538.34,559.91s.7.415.463,1.06S538.34,559.91,538.34,559.91Z" transform="translate(-438.68 -452.153)" fill="#6c63ff"/>
    <path id="Path_394" data-name="Path 394" d="M538,549.68s.645.347.728.859S538,549.68,538,549.68Z" transform="translate(-438.397 -444.119)" opacity="0.1"/>
    <path id="Path_395" data-name="Path 395" d="M589.87,654.6s4.056.415,4.865-.553A24.394,24.394,0,0,1,589.87,654.6Z" transform="translate(-478.936 -526.354)" opacity="0.1"/>
    <path id="Path_396" data-name="Path 396" d="M551.89,655.79s4.353,1.027,5.214.216C557.1,656.013,553.363,656.288,551.89,655.79Z" transform="translate(-449.02 -527.738)" opacity="0.1"/>
    <path id="Path_397" data-name="Path 397" d="M591.57,664.32s1.822,0,2.666.05S591.57,664.32,591.57,664.32Z" transform="translate(-480.434 -534.51)" opacity="0.1"/>
    <path id="Path_398" data-name="Path 398" d="M553.51,668.54a2.408,2.408,0,0,0,1.9.828C556.421,669.185,553.51,668.54,553.51,668.54Z" transform="translate(-450.517 -537.742)" opacity="0.1"/>
    <path id="Path_399" data-name="Path 399" d="M544.943,438.874a3.518,3.518,0,0,0-.369,1.421,5.925,5.925,0,0,1-1.589,3.134c-.793.844-1.882,1.609-2.089,2.64-.194.979.466,1.921.813,2.874.922,2.513-.369,5.149-.737,7.743-.1.717.02,1.634.9,1.871a4.858,4.858,0,0,1,.841.184,1.007,1.007,0,0,1,.494.787,12.073,12.073,0,0,1,.229,3.243,1.8,1.8,0,0,0,.49,1.731,2.968,2.968,0,0,0,.955.38c.907.245,2.08.439,2.692-.133.256-.24.352-.579.673-.769.479-.284,1.16-.092,1.763-.063a3.2,3.2,0,0,0,2.867-1.539,4.125,4.125,0,0,0,.265-2.828,17.649,17.649,0,0,1-.516-2.843,1.642,1.642,0,0,1,.214-.962c.369-.572,1.226-.831,1.814-1.28a2.86,2.86,0,0,0,.7-3.374,14.765,14.765,0,0,1-1.208-3.45,1.322,1.322,0,0,1,.162-.833,3.35,3.35,0,0,1,.684-.61,3.51,3.51,0,0,0,.088-5.105C553.608,439.4,546.952,435.762,544.943,438.874Z" transform="translate(-439.586 -353.489)" fill="#e3787d"/>
    <g id="Group_87" data-name="Group 87" transform="translate(101.229 89.676)" opacity="0.1">
      <path id="Path_400" data-name="Path 400" d="M541.753,485.045a6.3,6.3,0,0,0-.254-2.985c-.173-.481-.428-.959-.614-1.44a2.147,2.147,0,0,0-.2.553c-.194.979.466,1.921.813,2.874A5.162,5.162,0,0,1,541.753,485.045Z" transform="translate(-540.651 -477.831)"/>
      <path id="Path_401" data-name="Path 401" d="M543.6,541.964a12.076,12.076,0,0,0-.229-3.243,1.007,1.007,0,0,0-.494-.787,4.866,4.866,0,0,0-.841-.184,1.154,1.154,0,0,1-.772-.64c-.05.251-.094.5-.131.754-.1.717.02,1.633.9,1.871a4.855,4.855,0,0,1,.841.184,1.01,1.01,0,0,1,.494.789,12.145,12.145,0,0,1,.214,1.5C543.59,542.125,543.6,542.044,543.6,541.964Z" transform="translate(-541.02 -523.906)"/>
      <path id="Path_402" data-name="Path 402" d="M563.995,558.072a3.193,3.193,0,0,1-2.867,1.539c-.6-.029-1.291-.221-1.763.063-.319.184-.417.529-.673.769-.612.572-1.785.378-2.692.133a2.9,2.9,0,0,1-.953-.382,1.2,1.2,0,0,1-.472-.763c0,.339,0,.68-.02,1.02a1.793,1.793,0,0,0,.492,1.731,2.949,2.949,0,0,0,.953.38c.907.245,2.08.439,2.692-.131.256-.242.354-.581.673-.771.479-.284,1.16-.092,1.763-.063a3.193,3.193,0,0,0,2.867-1.539,4.022,4.022,0,0,0,.286-2.718,3,3,0,0,1-.286.732Z" transform="translate(-551.974 -540.406)"/>
      <path id="Path_403" data-name="Path 403" d="M613.5,466.961a3.248,3.248,0,0,0-.669.625,1.322,1.322,0,0,0-.162.833,4.462,4.462,0,0,0,.229,1.064,4.351,4.351,0,0,1,.6-.536,3.217,3.217,0,0,0,1-3.457A3.167,3.167,0,0,1,613.5,466.961Z" transform="translate(-599.38 -465.49)"/>
      <path id="Path_404" data-name="Path 404" d="M606.492,513.6c-.588.448-1.445.708-1.814,1.278a1.66,1.66,0,0,0-.214.964,6.77,6.77,0,0,0,.142,1.152.891.891,0,0,1,.072-.129c.369-.571,1.226-.832,1.814-1.28a2.752,2.752,0,0,0,.791-3.068A2.331,2.331,0,0,1,606.492,513.6Z" transform="translate(-592.694 -503.849)"/>
    </g>
    <path id="Path_405" data-name="Path 405" d="M626.246,512.425a5.811,5.811,0,0,1-1.558,2.4H624.2l-4.294.044-.5-1.357.7-2.93.43.017a2.478,2.478,0,0,0,.828.266,4.5,4.5,0,0,1,1.106.066.153.153,0,0,0,.081.011c.162-.017.332-.26.332-.26S626.923,510.7,626.246,512.425Z" transform="translate(-502.014 -413.027)" fill="#2f516c"/>
    <path id="Path_406" data-name="Path 406" d="M640.153,512.915a5.81,5.81,0,0,1-1.558,2.4h-.489a22.475,22.475,0,0,1,1-2.4c.21-.315-1.6-1.067-2.649-1.475.162-.017.332-.26.332-.26S640.829,511.193,640.153,512.915Z" transform="translate(-515.696 -413.513)" opacity="0.1"/>
  </g>
</svg>
