<svg xmlns="http://www.w3.org/2000/svg" xmlns:xlink="http://www.w3.org/1999/xlink" width="218.74" height="160.474" viewBox="0 0 218.74 160.474">
  <defs>
    <linearGradient id="linear-gradient" x1="0.5" y1="1" x2="0.5" gradientUnits="objectBoundingBox">
      <stop offset="0" stop-color="gray" stop-opacity="0.251"/>
      <stop offset="0.54" stop-color="gray" stop-opacity="0.122"/>
      <stop offset="1" stop-color="gray" stop-opacity="0.102"/>
    </linearGradient>
    <linearGradient id="linear-gradient-2" x1="9.926" x2="9.926" y2="0" xlink:href="#linear-gradient"/>
  </defs>
  <g id="undraw_make_it_rain_iwk4" transform="translate(0 0)">
    <path id="Path_539" data-name="Path 539" d="M179.589,250.814c-2.877.869-5.57,2.973-6.288,5.893-.822,3.355,1.074,6.737,1.347,10.182.885,11.287-15.173,19.251-12.882,30.338.91,4.408,4.586,7.651,8.208,10.331,5.8,4.278,12.242,8.058,19.372,9.125,10.822,1.621,22.13-3.144,32.649-.133,8.485,2.43,14.977,9.551,23.4,12.179,6.414,2,13.324,1.213,19.988.4,3.593-.436,7.357-.939,10.257-3.095,5.39-4.013,5.729-11.939,9.338-17.618,5.574-8.759,17.8-10.479,28.043-8.777s20.2,5.893,30.581,5.552a13.958,13.958,0,0,0,6.427-1.464c2.354-1.323,3.944-3.654,5.349-5.96a96.446,96.446,0,0,0,13.985-47.923c.061-2.908-.043-5.942-1.41-8.509-1.729-3.247-5.186-5.19-8.626-6.5-8.262-3.144-17.389-3.658-25.485-7.2-7.809-3.42-14.133-9.419-20.933-14.559a111.5,111.5,0,0,0-45.924-20.452c-3.905-.755-7.959-1.294-11.84-.422-4.471,1-8.325,3.791-11.79,6.791-9.219,7.982-16.608,17.829-25.1,26.577a142.918,142.918,0,0,1-19.071,16.446c-3.144,2.266-6.486,4.956-9.989,6.632C185.988,250.179,182.98,249.792,179.589,250.814Z" transform="translate(-150.641 -169.517)" fill="#d6edf5"/>
    <path id="Path_540" data-name="Path 540" d="M378.983,138.88s-8.68,11.528-2.47,24.964S365.69,198.87,365.69,198.87" transform="translate(-308.941 -128.518)" fill="none" stroke="#535461" stroke-miterlimit="10" stroke-width="2"/>
    <path id="Path_541" data-name="Path 541" d="M422.832,98.787c-.689,2.967-3.989,4.734-3.989,4.734s-2.178-3.043-1.489-6.01,2.47-5.087,3.989-4.734S423.521,95.821,422.832,98.787Z" transform="translate(-348.898 -92.74)" fill="#8ed16f"/>
    <ellipse id="Ellipse_49" data-name="Ellipse 49" cx="1.732" cy="0.649" rx="1.732" ry="0.649" transform="translate(70.061 6.922) rotate(-76.9)" fill="#8ed16f"/>
    <ellipse id="Ellipse_50" data-name="Ellipse 50" cx="1.732" cy="0.649" rx="1.732" ry="0.649" transform="translate(70.061 6.922) rotate(-76.9)" opacity="0.3"/>
    <path id="Path_542" data-name="Path 542" d="M414.322,158.053c-2.866,1.033-6.142-.777-6.142-.777s1.37-3.483,4.238-4.514,5.614-.674,6.142.777S417.188,157.02,414.322,158.053Z" transform="translate(-341.889 -138.825)" fill="#8ed16f"/>
    <ellipse id="Ellipse_51" data-name="Ellipse 51" cx="1.732" cy="0.649" rx="1.732" ry="0.649" transform="matrix(0.94, -0.34, 0.34, 0.94, 69.56, 16.309)" fill="#8ed16f"/>
    <ellipse id="Ellipse_52" data-name="Ellipse 52" cx="1.732" cy="0.649" rx="1.732" ry="0.649" transform="matrix(0.94, -0.34, 0.34, 0.94, 69.56, 16.309)" opacity="0.3"/>
    <path id="Path_543" data-name="Path 543" d="M411.352,204.823c-2.866,1.033-6.142-.777-6.142-.777s1.37-3.483,4.238-4.514,5.615-.674,6.142.777S414.218,203.792,411.352,204.823Z" transform="translate(-339.586 -175.092)" fill="#8ed16f"/>
    <ellipse id="Ellipse_53" data-name="Ellipse 53" cx="1.732" cy="0.649" rx="1.732" ry="0.649" transform="translate(68.926 26.968) rotate(-19.8)" fill="#8ed16f"/>
    <ellipse id="Ellipse_54" data-name="Ellipse 54" cx="1.732" cy="0.649" rx="1.732" ry="0.649" transform="translate(68.926 26.968) rotate(-19.8)" opacity="0.3"/>
    <path id="Path_544" data-name="Path 544" d="M426.262,259.693c-2.866,1.033-6.142-.777-6.142-.777s1.37-3.483,4.238-4.514,5.615-.674,6.142.777S429.128,258.667,426.262,259.693Z" transform="translate(-351.147 -217.639)" fill="#8ed16f"/>
    <ellipse id="Ellipse_55" data-name="Ellipse 55" cx="1.732" cy="0.649" rx="1.732" ry="0.649" transform="translate(72.275 39.296) rotate(-19.8)" fill="#8ed16f"/>
    <ellipse id="Ellipse_56" data-name="Ellipse 56" cx="1.732" cy="0.649" rx="1.732" ry="0.649" transform="translate(72.275 39.296) rotate(-19.8)" opacity="0.3"/>
    <path id="Path_545" data-name="Path 545" d="M416.562,309.873c-2.866,1.033-6.142-.777-6.142-.777s1.37-3.483,4.238-4.514,5.615-.674,6.142.777S419.43,308.842,416.562,309.873Z" transform="translate(-343.626 -256.549)" fill="#8ed16f"/>
    <ellipse id="Ellipse_57" data-name="Ellipse 57" cx="1.732" cy="0.649" rx="1.732" ry="0.649" transform="matrix(0.94, -0.34, 0.34, 0.94, 70.103, 50.378)" fill="#8ed16f"/>
    <ellipse id="Ellipse_58" data-name="Ellipse 58" cx="1.732" cy="0.649" rx="1.732" ry="0.649" transform="matrix(0.94, -0.34, 0.34, 0.94, 70.103, 50.378)" opacity="0.3"/>
    <path id="Path_546" data-name="Path 546" d="M369.942,169.641c2.116,2.192,5.855,2.021,5.855,2.021s.308-3.73-1.808-5.922-4.736-3.095-5.855-2.021S367.827,167.449,369.942,169.641Z" transform="translate(-310.447 -147.428)" fill="#8ed16f"/>
    <ellipse id="Ellipse_59" data-name="Ellipse 59" cx="0.649" cy="1.732" rx="0.649" ry="1.732" transform="matrix(0.719, -0.695, 0.695, 0.719, 59.93, 19.394)" fill="#8ed16f"/>
    <ellipse id="Ellipse_60" data-name="Ellipse 60" cx="0.649" cy="1.732" rx="0.649" ry="1.732" transform="matrix(0.719, -0.695, 0.695, 0.719, 59.93, 19.394)" opacity="0.3"/>
    <path id="Path_547" data-name="Path 547" d="M364.532,324.631c2.116,2.192,5.855,2.021,5.855,2.021s.308-3.73-1.808-5.922-4.736-3.095-5.855-2.021S362.417,322.439,364.532,324.631Z" transform="translate(-306.252 -267.611)" fill="#8ed16f"/>
    <ellipse id="Ellipse_61" data-name="Ellipse 61" cx="0.649" cy="1.732" rx="0.649" ry="1.732" transform="matrix(0.719, -0.695, 0.695, 0.719, 58.712, 54.205)" fill="#8ed16f"/>
    <ellipse id="Ellipse_62" data-name="Ellipse 62" cx="0.649" cy="1.732" rx="0.649" ry="1.732" transform="matrix(0.719, -0.695, 0.695, 0.719, 58.712, 54.205)" opacity="0.3"/>
    <path id="Path_548" data-name="Path 548" d="M371.751,225.569c2.726,1.361,6.192-.054,6.192-.054s-.954-3.618-3.679-4.979-5.5-1.347-6.192.054S369.024,224.208,371.751,225.569Z" transform="translate(-310.665 -191.054)" fill="#8ed16f"/>
    <ellipse id="Ellipse_63" data-name="Ellipse 63" cx="0.649" cy="1.732" rx="0.649" ry="1.732" transform="translate(60.547 31.707) rotate(-63.48)" fill="#8ed16f"/>
    <ellipse id="Ellipse_64" data-name="Ellipse 64" cx="0.649" cy="1.732" rx="0.649" ry="1.732" transform="translate(60.547 31.707) rotate(-63.48)" opacity="0.3"/>
    <path id="Path_549" data-name="Path 549" d="M376.843,280.139c2.726,1.361,6.192-.054,6.192-.054s-.954-3.618-3.679-4.979-5.5-1.348-6.192.054S374.128,278.791,376.843,280.139Z" transform="translate(-314.614 -233.368)" fill="#8ed16f"/>
    <ellipse id="Ellipse_65" data-name="Ellipse 65" cx="0.649" cy="1.732" rx="0.649" ry="1.732" transform="translate(61.691 43.963) rotate(-63.48)" fill="#8ed16f"/>
    <ellipse id="Ellipse_66" data-name="Ellipse 66" cx="0.649" cy="1.732" rx="0.649" ry="1.732" transform="translate(61.691 43.963) rotate(-63.48)" opacity="0.3"/>
    <path id="Path_550" data-name="Path 550" d="M181.17,249.21a37.855,37.855,0,0,1,6.9,39.378c-8.949,23.525,15.341,62.644,15.341,62.644s-.26-.038-.743-.124c-32.564-5.747-48.734-42.987-30.633-70.65C178.76,270.172,184.3,258.108,181.17,249.21Z" transform="translate(-152.933 -214.071)" fill="#8ed16f"/>
    <path id="Path_551" data-name="Path 551" d="M113,534.036s18.09-2.881,19.738,13.331,34.785,18.46,34.785,18.46l-.622.413c-27.361,17.966-53.515,11.44-49.574-12.408C118.8,544.964,118.675,536.059,113,534.036Z" transform="translate(-113 -434.777)" fill="#8ed16f"/>
    <g id="Group_103" data-name="Group 103" transform="translate(0 99.061)" opacity="0.3">
      <path id="Path_552" data-name="Path 552" d="M113,534.036s18.09-2.881,19.738,13.331,34.785,18.46,34.785,18.46l-.622.413c-27.361,17.966-53.515,11.44-49.574-12.408C118.8,544.964,118.675,536.059,113,534.036Z" transform="translate(-113 -533.838)" fill="#fff"/>
    </g>
    <ellipse id="Ellipse_67" data-name="Ellipse 67" cx="4.974" cy="12.978" rx="4.974" ry="12.978" transform="translate(18.683 73.102)" fill="#8ed16f"/>
    <ellipse id="Ellipse_68" data-name="Ellipse 68" cx="4.974" cy="12.978" rx="4.974" ry="12.978" transform="translate(18.683 73.102)" opacity="0.3"/>
    <ellipse id="Ellipse_69" data-name="Ellipse 69" cx="3.353" cy="7.463" rx="3.353" ry="7.463" transform="translate(10.278 125.033) rotate(-45)" fill="#8ed16f"/>
    <ellipse id="Ellipse_70" data-name="Ellipse 70" cx="3.353" cy="7.463" rx="3.353" ry="7.463" transform="translate(10.278 125.033) rotate(-45)" opacity="0.3"/>
    <path id="Path_553" data-name="Path 553" d="M411.781,358.2H294.025a5.365,5.365,0,0,0-5.365,5.365v69.02a5.365,5.365,0,0,0,5.365,5.365H411.781a5.365,5.365,0,0,0,5.365-5.365v-69.02A5.365,5.365,0,0,0,411.781,358.2Z" transform="translate(-249.21 -298.584)" fill="url(#linear-gradient)"/>
    <rect id="Rectangle_149" data-name="Rectangle 149" width="125.461" height="77.873" rx="24.81" transform="translate(40.961 60.555)" fill="rgba(47,81,108,0.72)"/>
    <rect id="Rectangle_150" data-name="Rectangle 150" width="125.461" height="14.277" transform="translate(40.961 74.183)" fill="#6c63ff"/>
    <rect id="Rectangle_151" data-name="Rectangle 151" width="125.461" height="14.277" transform="translate(40.961 74.183)" fill="#2f516c"/>
    <rect id="Rectangle_152" data-name="Rectangle 152" width="101.667" height="6.922" transform="translate(52.859 99.059)" fill="#2f516c"/>
    <circle id="Ellipse_71" data-name="Ellipse 71" cx="9.951" cy="9.951" r="9.951" transform="translate(51.343 113.336)" fill="#6c63ff"/>
    <circle id="Ellipse_72" data-name="Ellipse 72" cx="9.951" cy="9.951" r="9.951" transform="translate(51.343 113.336)" fill="#2f516c"/>
    <path id="Path_554" data-name="Path 554" d="M822.154,221.576a2.179,2.179,0,0,0,.959,1.213c2.064,1.363,6.551,1.073,7.09,1.073.115,0,.265.2.431.548a37.913,37.913,0,0,1,2.1,7.505c.11,1.3,1.323,7.411,3.308,9.686.061.07.121.135.18.2,1.947,1.956,4.231-.2,4.231-.2l.328-1.139c-.092.449-.2.972-.3,1.559-.052.294-.1.606-.153.928a35.542,35.542,0,0,0-.465,5.473,19.849,19.849,0,0,0,.085,1.994c.018.184.038.366.063.543a19.039,19.039,0,0,1,.148,2.434,66.179,66.179,0,0,1-1.251,10.845l.047-.016c-.029.15-.047.225-.047.225l.072-.022q-.052.335-.1.685c-.418,3.032-.658,6.8-.773,8.983a17.977,17.977,0,0,0,.153,3.441l2.192,15.431v7.186a12.689,12.689,0,0,0,.4,3.229c.714,2.715.126,12.192-.2,16.689-.092,1.226-.164,2.084-.184,2.331v.074l.063-.025v.079a1.268,1.268,0,0,1,.292-.085c-.869,1.347-2.443,3.575-3.654,3.95a3.833,3.833,0,0,0-1.826,1.211l-.031.043-.045.063a1.347,1.347,0,0,0-.263.687.758.758,0,0,1-.04-.133c-.092.5.209.959,1.154,1.181a7.772,7.772,0,0,0,1.673.135c3.279,0,9.1-1.008,9.74-2.093v-3.741l.106.034v.034l.4.133,1.1-3.7c1.323-.979.225-18.5,0-22.53-.2-3.67,2.068-18.267,2.47-20.839l-.054-.065.061-.375a1.591,1.591,0,0,1,.225.2,2.937,2.937,0,0,1,.344.507,6.788,6.788,0,0,1,.487,1.006c2.219,5.534,3.218,21.357,3.218,22.777V315.8a15.494,15.494,0,0,0,.606,4.341,18.617,18.617,0,0,1,.472,2.259c.047.3.088.6.126.878s.076.606.106.871a1.832,1.832,0,0,0,.022.2.391.391,0,0,1,0,.092c.061.586.092.97.092.97a.225.225,0,0,1,.045-.088l.011.141a.3.3,0,0,1,.088-.139,2.127,2.127,0,0,1,.3-.243v1.891l-.054-.04v.326c2.286,1.725,6.008,2.246,8.864,2.226a11.34,11.34,0,0,0,3.874-.485c.746-.366.337-1.219-.341-1.873a2.562,2.562,0,0,0-1.644-.849c-.723.079-3.2-2.722-4.492-4.256l.146-.065.207-.09V297.062s.332-9.8,1.323-19.485a34.469,34.469,0,0,0-1.7-14.454l-.031-.092.3.047c.319.049.49.079.49.079a1.862,1.862,0,0,0-.02-.225h.02s-.386-4.2-.391-9.48c0-5.983.505-13.277,2.6-17.4a12.277,12.277,0,0,0,1.572-5.758,6.023,6.023,0,0,0-1.076-3.683,2.919,2.919,0,0,0-1.237-.979l-.043-.025H866.1a3.077,3.077,0,0,0-1.136-.225h-4.516a3.016,3.016,0,0,1-1.491-.393l-1.767-1a8.964,8.964,0,0,1-.548-4.377c0-.119.022-.238.034-.355l.128-.135c.1-.106.191-.225.281-.326a2.5,2.5,0,0,1-.02.265c-.022.141-.061.225-.121.243a3.9,3.9,0,0,0,2.637-1.062c.025-.029.047-.061.07-.092a4.815,4.815,0,0,0,.433-.9,2.61,2.61,0,0,1,.33-.6c.148-.193.341-.35.5-.535l.027-.031a3.877,3.877,0,0,0,.606-2.52c.011-2.138-.052-4.492-1.482-6.1a6.748,6.748,0,0,0-4.882-1.9c-1.8-.058-3.593.265-5.39.274-1.222,0-2.695-.02-3.369.99-.33.5-.371,1.145-.73,1.621-.207.274-.523.51-.541.851a.874.874,0,0,0,.117.449v.016a3.177,3.177,0,0,0,2.327,1.561,5.789,5.789,0,0,0-.449.62,5.9,5.9,0,0,0-.9,3.144,3.691,3.691,0,0,0,.013.386,5.936,5.936,0,0,0,1.882,3.955c-.018.126-.036.252-.056.375l.04.036q.191.173.4.328l.049.038v.225a3.8,3.8,0,0,1-.013.391c-.014.128,0,.207-.014.31l-.029-.025-2.194-1.833-3.528-3.265s-8.822-6.421-9.264-3.369a2.2,2.2,0,0,0,.42,1.523c1.619,2.47,7.187,4.572,7.187,4.572a47.05,47.05,0,0,1,5.54,7.294c-.079.043-.157.083-.24.121a10.416,10.416,0,0,1-4.86.53c-3.331.519-3.631,4.168-3.614,5.644v.305l-4.42-10.378-.013-.031a2.185,2.185,0,0,0-1.653-1.3C828.923,220.431,821.536,219.4,822.154,221.576Zm18.5,100.836a1.909,1.909,0,0,1,.2-.036l-.02.031Z" transform="translate(-662.864 -180.222)" fill="url(#linear-gradient-2)"/>
    <path id="Path_555" data-name="Path 555" d="M984.824,716.43s4.186,5.262,5.154,5.154,3.22,2.039,1.934,2.7-8.7,1.073-12.352-1.718v-4.206Z" transform="translate(-784.948 -576.362)" fill="#bbdcf8"/>
    <path id="Path_556" data-name="Path 556" d="M887.089,717.86s-2.47,4.4-4.186,4.941-3.221,2.47-.966,3.007,10.308-.645,11.058-1.934v-5.693Z" transform="translate(-708.366 -577.471)" fill="#bbdcf8"/>
    <path id="Path_557" data-name="Path 557" d="M894.388,466.96l2.133,15.222v7.076a12.69,12.69,0,0,0,.386,3.185c.7,2.679.124,12.026-.2,16.462-.105,1.446-.186,2.372-.186,2.372,1.395-.645,7.3,1.395,7.3,1.395l.6-2.032.476-1.617c1.289-.966.224-18.252,0-22.233-.146-2.72,1.067-11.537,1.844-16.821.225-1.493.406-2.695.517-3.418.07-.449.108-.7.108-.7a2.354,2.354,0,0,1,.579.7,6.728,6.728,0,0,1,.474.993c2.16,5.46,3.144,21.068,3.144,22.458v14.679a15.481,15.481,0,0,0,.591,4.283,22.452,22.452,0,0,1,.582,3.092c.153,1.166.225,2.1.225,2.1.108-.645,6.764-3.544,6.764-3.544V486.134s.321-9.657,1.289-19.219a34.291,34.291,0,0,0-1.235-12.931c-.267-.914-.535-1.689-.766-2.3-.393-1.044-.674-1.621-.674-1.621H896.41c-.368.07-.674.811-.95,1.936-.18.755-.337,1.68-.474,2.695-.407,2.989-.64,6.71-.752,8.862A17.935,17.935,0,0,0,894.388,466.96Z" transform="translate(-718.767 -369.814)" fill="#444053"/>
    <g id="Group_104" data-name="Group 104" transform="translate(177.809 80.314)" opacity="0.1">
      <path id="Path_558" data-name="Path 558" d="M984.1,510.916V486.436s.321-9.657,1.289-19.219a33.481,33.481,0,0,0-2.695-16.857h.429a33.676,33.676,0,0,1,2.7,16.857c-.954,9.556-1.289,19.219-1.289,19.219v24.479s-6.657,2.9-6.764,3.544a3.216,3.216,0,0,0-.034-.391A62.594,62.594,0,0,1,984.1,510.916Z" transform="translate(-961.338 -450.36)"/>
      <path id="Path_559" data-name="Path 559" d="M905.331,722.32a1.668,1.668,0,0,0-.591.121v-.108A3.831,3.831,0,0,1,905.331,722.32Z" transform="translate(-904.74 -661.239)"/>
      <path id="Path_560" data-name="Path 560" d="M936.553,563.789c1.289-.966.225-18.252,0-22.233s2.47-20.935,2.47-20.935a1.873,1.873,0,0,1,.371.382c-.4,2.533-2.605,16.936-2.41,20.554.225,3.973,1.289,21.259,0,22.233l-1.073,3.649-.391-.13Z" transform="translate(-928.607 -504.841)"/>
    </g>
    <path id="Path_561" data-name="Path 561" d="M845.063,286.768l-2.246,7.946s-2.363,2.246-4.294,0-3.122-8.267-3.238-9.556-1.826-7.946-2.47-7.946-7.085.429-7.838-2.246c-.6-2.151,6.589-1.123,9.468-.64a2.134,2.134,0,0,1,1.61,1.28l4.415,10.544S842.809,283.44,845.063,286.768Z" transform="translate(-665.054 -233.024)" fill="#f7c4a7"/>
    <path id="Path_562" data-name="Path 562" d="M937.921,249.82s-2.792,7.838.752,10.629S926,263.993,926,263.993l2.2-2.093s1.556-6.174.483-11.328Z" transform="translate(-743.417 -214.544)" fill="#f7c4a7"/>
    <path id="Path_563" data-name="Path 563" d="M909.367,292.148s2.845-.7,2.845-1.449l2.522,1.449h6.335s4.617,2.576.752,10.308-2.147,26.725-2.147,26.725-13.742-2.47-25.124,1.289c0,0,1.718-8.482,1.073-13.313s1.074-11.6,1.074-11.6l.966-4.081s-.054-3.818-4.027-1.88c0,0-.591-5.529,3.49-6.174,0,0,4.716.645,6.12-1.718C903.247,291.72,906.362,293.545,909.367,292.148Z" transform="translate(-718.299 -246.243)" opacity="0.1"/>
    <path id="Path_564" data-name="Path 564" d="M909.366,291.2s2.846-.7,2.846-1.449l1.848,1.062a2.92,2.92,0,0,0,1.451.386h4.431a2.919,2.919,0,0,1,2.374,1.208c1.017,1.431,1.929,4.251-.494,9.1-3.865,7.73-2.147,26.725-2.147,26.725s-13.742-2.47-25.124,1.289c0,0,1.718-8.482,1.073-13.313s1.073-11.579,1.073-11.579l.966-4.081s-.054-3.818-4.027-1.88c0,0-.575-5.376,3.322-6.145a1.1,1.1,0,0,1,.33-.022c.833.088,4.716.368,5.96-1.736C903.247,290.767,906.362,292.593,909.366,291.2Z" transform="translate(-718.299 -245.506)" fill="#2f516c"/>
    <path id="Path_565" data-name="Path 565" d="M952.378,310.561s-3.436,2.147-9.019,0c0,0-6.12-2.246-8.053-6.657s9.769.752,9.769.752,2.47,0,3.22-.537S954.309,308.2,952.378,310.561Z" transform="translate(-750.465 -255.1)" opacity="0.1"/>
    <path id="Path_566" data-name="Path 566" d="M905.237,259.347s-3.436,2.147-9.019,0c0,0-6.12-2.246-8.053-6.657s-6.441-9.241-6.441-9.241-7.838-3.007-7.411-6.012,9.019,3.328,9.019,3.328l3.436,3.22,11.166,9.448s2.47,0,3.221-.537S907.168,256.984,905.237,259.347Z" transform="translate(-703.324 -204.314)" fill="#f7c4a7"/>
    <path id="Path_567" data-name="Path 567" d="M937.49,252l9.232-.752a21.19,21.19,0,0,0-.963,4.373,5.9,5.9,0,0,1-8.264.225A10.5,10.5,0,0,0,937.49,252Z" transform="translate(-752.326 -215.652)" opacity="0.1"/>
    <circle id="Ellipse_73" data-name="Ellipse 73" cx="5.904" cy="5.904" r="5.904" transform="translate(183.394 29.642)" fill="#f7c4a7"/>
    <path id="Path_568" data-name="Path 568" d="M935.041,220.595c-.346-.57.357-1.314.126-1.938-.213-.575-1.062-.674-1.348-1.21-.224-.433,0-.966-.09-1.444a1.484,1.484,0,0,0-1.424-1.033,5.081,5.081,0,0,0-1.839.406,7.061,7.061,0,0,1-3.03.467,3.177,3.177,0,0,1-2.5-1.588.9.9,0,0,1-.115-.436c.018-.337.328-.568.528-.838.35-.469.391-1.109.71-1.6.651-1,2.082-.972,3.272-.977,1.752,0,3.494-.328,5.246-.269a6.534,6.534,0,0,1,4.754,1.871c1.392,1.583,1.455,3.9,1.444,6.012a3.826,3.826,0,0,1-.591,2.486c-.162.2-.359.357-.514.557-.337.449-.427,1.024-.743,1.48a3.623,3.623,0,0,1-2.634,1.139c.287-.038.049-1.963,0-2.14C936.1,220.655,935.9,220.673,935.041,220.595Z" transform="translate(-742.502 -183.766)" opacity="0.1"/>
    <path id="Path_569" data-name="Path 569" d="M935.041,219.645c-.346-.57.357-1.314.126-1.938-.213-.575-1.062-.674-1.348-1.211-.224-.433,0-.966-.09-1.444a1.484,1.484,0,0,0-1.424-1.033,5.081,5.081,0,0,0-1.839.406,7.061,7.061,0,0,1-3.03.467,3.177,3.177,0,0,1-2.5-1.588.9.9,0,0,1-.115-.436c.018-.337.328-.568.528-.838.35-.469.391-1.109.71-1.6.651-1,2.082-.972,3.272-.977,1.752,0,3.494-.328,5.246-.27a6.534,6.534,0,0,1,4.754,1.871c1.392,1.583,1.455,3.9,1.444,6.012a3.826,3.826,0,0,1-.591,2.486c-.162.2-.359.357-.514.557-.337.449-.427,1.024-.743,1.48a3.623,3.623,0,0,1-2.634,1.139c.287-.038.049-1.963,0-2.14C936.1,219.694,935.9,219.721,935.041,219.645Z" transform="translate(-742.502 -183.03)" fill="#281c1c"/>
    <path id="Path_570" data-name="Path 570" d="M992.4,313.883s-2.9-7.517-5.154-7.73,4.294,0,4.294,0l2.147,3.865Z" transform="translate(-790.544 -258.151)" opacity="0.1"/>
    <path id="Path_571" data-name="Path 571" d="M993.363,313.883s-2.9-7.517-5.154-7.73,4.294,0,4.294,0l2.147,3.865Z" transform="translate(-791.289 -258.151)" fill="#2f516c"/>
    <path id="Path_572" data-name="Path 572" d="M976.65,715.177c.153,1.166.225,2.1.225,2.1.108-.645,6.764-3.544,6.764-3.544v-1.745a2.959,2.959,0,0,0-.508.025,9.578,9.578,0,0,0-3.593,1.469A32.763,32.763,0,0,1,976.65,715.177Z" transform="translate(-782.692 -572.92)" fill="#618fd8"/>
    <path id="Path_573" data-name="Path 573" d="M976.65,715.177c.153,1.166.225,2.1.225,2.1.108-.645,6.764-3.544,6.764-3.544v-1.745a2.959,2.959,0,0,0-.508.025,9.578,9.578,0,0,0-3.593,1.469A32.763,32.763,0,0,1,976.65,715.177Z" transform="translate(-782.692 -572.92)" opacity="0.3"/>
    <path id="Path_574" data-name="Path 574" d="M904.5,713.965c1.395-.645,7.3,1.395,7.3,1.395l.6-2.032c-1.031-.209-2.055-.469-3.061-.779a10.2,10.2,0,0,1-1.374-.508,9.2,9.2,0,0,0-.916-.427,4.754,4.754,0,0,0-2.363-.02C904.581,713.04,904.5,713.965,904.5,713.965Z" transform="translate(-726.745 -572.503)" fill="#618fd8"/>
    <path id="Path_575" data-name="Path 575" d="M904.5,713.965c1.395-.645,7.3,1.395,7.3,1.395l.6-2.032c-1.031-.209-2.055-.469-3.061-.779a10.2,10.2,0,0,1-1.374-.508,9.2,9.2,0,0,0-.916-.427,4.754,4.754,0,0,0-2.363-.02C904.581,713.04,904.5,713.965,904.5,713.965Z" transform="translate(-726.745 -572.503)" opacity="0.3"/>
    <path id="Path_576" data-name="Path 576" d="M991.652,743.958a.642.642,0,0,0,.368-.427.631.631,0,0,1-.368.748c-1.289.645-8.7,1.073-12.352-1.718v-.321C982.956,745.031,990.363,744.6,991.652,743.958Z" transform="translate(-784.747 -596.376)" fill="#fff" opacity="0.4"/>
    <path id="Path_577" data-name="Path 577" d="M881.687,745.124c2.246.537,10.308-.645,11.058-1.934v.321c-.752,1.289-8.8,2.47-11.058,1.934-.921-.225-1.215-.674-1.123-1.166C880.636,744.643,880.973,744.944,881.687,745.124Z" transform="translate(-708.173 -597.113)" fill="#fff" opacity="0.4"/>
    <path id="Path_578" data-name="Path 578" d="M912.31,402.375s-2.363-.752-3.007,0-6.154,2.515-6.154,2.515" transform="translate(-725.698 -332.579)" opacity="0.1"/>
    <rect id="Rectangle_153" data-name="Rectangle 153" width="11.487" height="0.243" transform="translate(171.368 40.296) rotate(180)" fill="#8ed16f"/>
    <rect id="Rectangle_154" data-name="Rectangle 154" width="11.487" height="0.243" transform="translate(171.368 40.538) rotate(180)" fill="#8ed16f"/>
    <rect id="Rectangle_155" data-name="Rectangle 155" width="11.487" height="0.243" transform="translate(171.368 40.538) rotate(180)" opacity="0.1"/>
    <rect id="Rectangle_156" data-name="Rectangle 156" width="11.487" height="0.243" transform="translate(171.368 40.781) rotate(180)" fill="#8ed16f"/>
    <rect id="Rectangle_157" data-name="Rectangle 157" width="11.487" height="0.243" transform="translate(171.368 41.021) rotate(180)" fill="#8ed16f"/>
    <rect id="Rectangle_158" data-name="Rectangle 158" width="11.487" height="0.243" transform="translate(171.368 41.021) rotate(180)" opacity="0.1"/>
    <rect id="Rectangle_159" data-name="Rectangle 159" width="11.487" height="0.243" transform="translate(171.368 41.264) rotate(180)" fill="#8ed16f"/>
    <rect id="Rectangle_160" data-name="Rectangle 160" width="11.487" height="0.243" transform="translate(171.368 41.504) rotate(180)" fill="#8ed16f"/>
    <rect id="Rectangle_161" data-name="Rectangle 161" width="11.487" height="0.243" transform="translate(171.368 41.504) rotate(180)" opacity="0.1"/>
    <rect id="Rectangle_162" data-name="Rectangle 162" width="11.487" height="0.243" transform="translate(171.368 41.747) rotate(180)" fill="#8ed16f"/>
    <rect id="Rectangle_163" data-name="Rectangle 163" width="11.487" height="0.243" transform="translate(171.368 41.987) rotate(180)" fill="#8ed16f"/>
    <rect id="Rectangle_164" data-name="Rectangle 164" width="11.487" height="0.243" transform="translate(171.368 41.987) rotate(180)" opacity="0.1"/>
    <rect id="Rectangle_165" data-name="Rectangle 165" width="11.487" height="0.243" transform="translate(171.368 38.364) rotate(180)" fill="#8ed16f"/>
    <rect id="Rectangle_166" data-name="Rectangle 166" width="11.487" height="0.243" transform="matrix(-0.769, -0.639, 0.639, -0.769, 176.838, 39.967)" fill="#8ed16f"/>
    <rect id="Rectangle_167" data-name="Rectangle 167" width="11.487" height="0.243" transform="matrix(-0.769, -0.639, 0.639, -0.769, 168.786, 36.103)" fill="#8ed16f"/>
    <rect id="Rectangle_168" data-name="Rectangle 168" width="11.487" height="0.243" transform="translate(171.368 38.605) rotate(180)" fill="#8ed16f"/>
    <rect id="Rectangle_169" data-name="Rectangle 169" width="11.487" height="0.243" transform="translate(171.368 38.605) rotate(180)" opacity="0.1"/>
    <rect id="Rectangle_170" data-name="Rectangle 170" width="11.487" height="0.243" transform="translate(171.368 38.85) rotate(180)" fill="#8ed16f"/>
    <rect id="Rectangle_171" data-name="Rectangle 171" width="11.487" height="0.243" transform="translate(171.368 39.09) rotate(180)" fill="#8ed16f"/>
    <rect id="Rectangle_172" data-name="Rectangle 172" width="11.487" height="0.243" transform="translate(171.368 39.09) rotate(180)" opacity="0.1"/>
    <rect id="Rectangle_173" data-name="Rectangle 173" width="11.487" height="0.243" transform="translate(171.368 39.33) rotate(180)" fill="#8ed16f"/>
    <rect id="Rectangle_174" data-name="Rectangle 174" width="11.487" height="0.243" transform="translate(171.368 39.573) rotate(180)" fill="#8ed16f"/>
    <rect id="Rectangle_175" data-name="Rectangle 175" width="11.487" height="0.243" transform="translate(171.368 39.573) rotate(180)" opacity="0.1"/>
    <rect id="Rectangle_176" data-name="Rectangle 176" width="11.487" height="0.243" transform="translate(171.368 39.813) rotate(180)" fill="#8ed16f"/>
    <rect id="Rectangle_177" data-name="Rectangle 177" width="11.487" height="0.243" transform="translate(171.368 40.056) rotate(180)" fill="#8ed16f"/>
    <rect id="Rectangle_178" data-name="Rectangle 178" width="11.487" height="0.243" transform="translate(171.368 40.056) rotate(180)" opacity="0.1"/>
    <rect id="Rectangle_179" data-name="Rectangle 179" width="4.186" height="8.159" transform="translate(162.54 50.237) rotate(-169.48)" fill="#8ed16f"/>
    <ellipse id="Ellipse_74" data-name="Ellipse 74" cx="1.718" cy="0.858" rx="1.718" ry="0.858" transform="translate(160.127 47.402) rotate(-79.48)" fill="#8ed16f"/>
    <ellipse id="Ellipse_75" data-name="Ellipse 75" cx="1.718" cy="0.858" rx="1.718" ry="0.858" transform="translate(160.127 47.402) rotate(-79.48)" opacity="0.1"/>
    <rect id="Rectangle_180" data-name="Rectangle 180" width="4.186" height="8.159" transform="translate(163.245 67.169) rotate(-169.48)" fill="#8ed16f"/>
    <ellipse id="Ellipse_76" data-name="Ellipse 76" cx="1.718" cy="0.858" rx="1.718" ry="0.858" transform="translate(160.829 64.332) rotate(-79.48)" fill="#8ed16f"/>
    <ellipse id="Ellipse_77" data-name="Ellipse 77" cx="1.718" cy="0.858" rx="1.718" ry="0.858" transform="translate(160.829 64.332) rotate(-79.48)" opacity="0.1"/>
    <rect id="Rectangle_181" data-name="Rectangle 181" width="4.186" height="8.159" transform="matrix(0.476, -0.879, 0.879, 0.476, 142.249, 28.469)" fill="#8ed16f"/>
    <ellipse id="Ellipse_78" data-name="Ellipse 78" cx="0.86" cy="1.722" rx="0.86" ry="1.722" transform="translate(145.609 28.657) rotate(-61.39)" fill="#8ed16f"/>
    <ellipse id="Ellipse_79" data-name="Ellipse 79" cx="0.86" cy="1.722" rx="0.86" ry="1.722" transform="translate(145.609 28.657) rotate(-61.39)" opacity="0.1"/>
    <rect id="Rectangle_182" data-name="Rectangle 182" width="4.186" height="8.159" transform="matrix(0.476, -0.879, 0.879, 0.476, 126.493, 101.125)" fill="#8ed16f"/>
    <ellipse id="Ellipse_80" data-name="Ellipse 80" cx="0.858" cy="1.718" rx="0.858" ry="1.718" transform="matrix(0.476, -0.879, 0.879, 0.476, 129.135, 101.212)" fill="#8ed16f"/>
    <ellipse id="Ellipse_81" data-name="Ellipse 81" cx="0.858" cy="1.718" rx="0.858" ry="1.718" transform="matrix(0.476, -0.879, 0.879, 0.476, 129.135, 101.212)" opacity="0.1"/>
    <rect id="Rectangle_183" data-name="Rectangle 183" width="4.186" height="8.159" transform="matrix(0.476, -0.879, 0.879, 0.476, 116.853, 41.166)" fill="#8ed16f"/>
    <ellipse id="Ellipse_82" data-name="Ellipse 82" cx="0.858" cy="1.718" rx="0.858" ry="1.718" transform="matrix(0.476, -0.879, 0.879, 0.476, 119.493, 41.25)" fill="#8ed16f"/>
    <ellipse id="Ellipse_83" data-name="Ellipse 83" cx="0.858" cy="1.718" rx="0.858" ry="1.718" transform="matrix(0.476, -0.879, 0.879, 0.476, 119.493, 41.25)" opacity="0.1"/>
    <rect id="Rectangle_184" data-name="Rectangle 184" width="4.186" height="8.159" transform="matrix(0.476, -0.879, 0.879, 0.476, 128.936, 28.468)" fill="#8ed16f"/>
    <ellipse id="Ellipse_84" data-name="Ellipse 84" cx="0.858" cy="1.718" rx="0.858" ry="1.718" transform="matrix(0.476, -0.879, 0.879, 0.476, 131.575, 28.551)" fill="#8ed16f"/>
    <ellipse id="Ellipse_85" data-name="Ellipse 85" cx="0.858" cy="1.718" rx="0.858" ry="1.718" transform="matrix(0.476, -0.879, 0.879, 0.476, 131.575, 28.551)" opacity="0.1"/>
    <rect id="Rectangle_185" data-name="Rectangle 185" width="4.186" height="8.159" transform="matrix(0.994, -0.109, 0.109, 0.994, 138.83, 40.225)" fill="#8ed16f"/>
    <ellipse id="Ellipse_86" data-name="Ellipse 86" cx="0.858" cy="1.718" rx="0.858" ry="1.718" transform="matrix(0.994, -0.109, 0.109, 0.994, 140.26, 42.445)" fill="#8ed16f"/>
    <ellipse id="Ellipse_87" data-name="Ellipse 87" cx="0.858" cy="1.718" rx="0.858" ry="1.718" transform="matrix(0.994, -0.109, 0.109, 0.994, 140.26, 42.445)" opacity="0.1"/>
    <rect id="Rectangle_186" data-name="Rectangle 186" width="4.186" height="8.159" transform="matrix(0.994, -0.109, 0.109, 0.994, 167.361, 84.638)" fill="#8ed16f"/>
    <ellipse id="Ellipse_88" data-name="Ellipse 88" cx="0.858" cy="1.718" rx="0.858" ry="1.718" transform="matrix(0.994, -0.109, 0.109, 0.994, 168.793, 86.858)" fill="#8ed16f"/>
    <ellipse id="Ellipse_89" data-name="Ellipse 89" cx="0.858" cy="1.718" rx="0.858" ry="1.718" transform="matrix(0.994, -0.109, 0.109, 0.994, 168.793, 86.858)" opacity="0.1"/>
    <rect id="Rectangle_187" data-name="Rectangle 187" width="4.186" height="8.159" transform="matrix(0.476, -0.879, 0.879, 0.476, 124.704, 60.68)" fill="#8ed16f"/>
    <ellipse id="Ellipse_90" data-name="Ellipse 90" cx="0.858" cy="1.718" rx="0.858" ry="1.718" transform="matrix(0.476, -0.879, 0.879, 0.476, 127.342, 60.767)" fill="#8ed16f"/>
    <ellipse id="Ellipse_91" data-name="Ellipse 91" cx="0.858" cy="1.718" rx="0.858" ry="1.718" transform="matrix(0.476, -0.879, 0.879, 0.476, 127.342, 60.767)" opacity="0.1"/>
    <rect id="Rectangle_188" data-name="Rectangle 188" width="4.186" height="8.159" transform="matrix(0.476, -0.879, 0.879, 0.476, 106.596, 55.509)" fill="#8ed16f"/>
    <ellipse id="Ellipse_92" data-name="Ellipse 92" cx="0.86" cy="1.722" rx="0.86" ry="1.722" transform="translate(109.827 55.826) rotate(-61.39)" fill="#8ed16f"/>
    <ellipse id="Ellipse_93" data-name="Ellipse 93" cx="0.86" cy="1.722" rx="0.86" ry="1.722" transform="translate(109.827 55.826) rotate(-61.39)" opacity="0.1"/>
    <rect id="Rectangle_189" data-name="Rectangle 189" width="4.186" height="8.159" transform="matrix(0.476, -0.879, 0.879, 0.476, 100.797, 142.58)" fill="#8ed16f"/>
    <ellipse id="Ellipse_94" data-name="Ellipse 94" cx="0.858" cy="1.718" rx="0.858" ry="1.718" transform="matrix(0.476, -0.879, 0.879, 0.476, 103.436, 142.664)" fill="#8ed16f"/>
    <ellipse id="Ellipse_95" data-name="Ellipse 95" cx="0.858" cy="1.718" rx="0.858" ry="1.718" transform="matrix(0.476, -0.879, 0.879, 0.476, 103.436, 142.664)" opacity="0.1"/>
    <rect id="Rectangle_190" data-name="Rectangle 190" width="4.186" height="8.159" transform="translate(96.805 144.434) rotate(-79.49)" fill="#8ed16f"/>
    <rect id="Rectangle_191" data-name="Rectangle 191" width="4.186" height="8.159" transform="translate(96.805 144.434) rotate(-79.49)" opacity="0.05"/>
    <ellipse id="Ellipse_96" data-name="Ellipse 96" cx="0.858" cy="1.718" rx="0.858" ry="1.718" transform="translate(99.344 143.702) rotate(-79.49)" fill="#8ed16f"/>
    <ellipse id="Ellipse_97" data-name="Ellipse 97" cx="0.858" cy="1.718" rx="0.858" ry="1.718" transform="translate(99.344 143.702) rotate(-79.49)" opacity="0.1"/>
    <rect id="Rectangle_192" data-name="Rectangle 192" width="4.186" height="8.159" transform="translate(97.557 146.902) rotate(-79.49)" fill="#8ed16f"/>
    <ellipse id="Ellipse_98" data-name="Ellipse 98" cx="0.858" cy="1.718" rx="0.858" ry="1.718" transform="translate(100.093 146.171) rotate(-79.49)" fill="#8ed16f"/>
    <ellipse id="Ellipse_99" data-name="Ellipse 99" cx="0.858" cy="1.718" rx="0.858" ry="1.718" transform="translate(100.093 146.171) rotate(-79.49)" opacity="0.1"/>
    <rect id="Rectangle_193" data-name="Rectangle 193" width="4.186" height="8.159" transform="matrix(0.476, -0.879, 0.879, 0.476, 109.261, 153.161)" fill="#8ed16f"/>
    <ellipse id="Ellipse_100" data-name="Ellipse 100" cx="0.858" cy="1.718" rx="0.858" ry="1.718" transform="matrix(0.476, -0.879, 0.879, 0.476, 111.902, 153.246)" fill="#8ed16f"/>
    <ellipse id="Ellipse_101" data-name="Ellipse 101" cx="0.858" cy="1.718" rx="0.858" ry="1.718" transform="matrix(0.476, -0.879, 0.879, 0.476, 111.902, 153.246)" opacity="0.1"/>
    <rect id="Rectangle_194" data-name="Rectangle 194" width="4.186" height="8.159" transform="translate(105.271 155.013) rotate(-79.49)" fill="#8ed16f"/>
    <rect id="Rectangle_195" data-name="Rectangle 195" width="4.186" height="8.159" transform="translate(105.271 155.013) rotate(-79.49)" opacity="0.05"/>
    <ellipse id="Ellipse_102" data-name="Ellipse 102" cx="0.858" cy="1.718" rx="0.858" ry="1.718" transform="translate(107.808 154.281) rotate(-79.49)" fill="#8ed16f"/>
    <ellipse id="Ellipse_103" data-name="Ellipse 103" cx="0.858" cy="1.718" rx="0.858" ry="1.718" transform="translate(107.808 154.281) rotate(-79.49)" opacity="0.1"/>
    <rect id="Rectangle_196" data-name="Rectangle 196" width="4.186" height="8.159" transform="translate(106.022 157.484) rotate(-79.49)" fill="#8ed16f"/>
    <ellipse id="Ellipse_104" data-name="Ellipse 104" cx="0.858" cy="1.718" rx="0.858" ry="1.718" transform="translate(108.561 156.752) rotate(-79.49)" fill="#8ed16f"/>
    <ellipse id="Ellipse_105" data-name="Ellipse 105" cx="0.858" cy="1.718" rx="0.858" ry="1.718" transform="translate(108.561 156.752) rotate(-79.49)" opacity="0.1"/>
    <rect id="Rectangle_197" data-name="Rectangle 197" width="4.186" height="8.159" transform="matrix(0.476, -0.879, 0.879, 0.476, 121.96, 146.342)" fill="#8ed16f"/>
    <ellipse id="Ellipse_106" data-name="Ellipse 106" cx="0.858" cy="1.718" rx="0.858" ry="1.718" transform="matrix(0.476, -0.879, 0.879, 0.476, 124.598, 146.426)" fill="#8ed16f"/>
    <ellipse id="Ellipse_107" data-name="Ellipse 107" cx="0.858" cy="1.718" rx="0.858" ry="1.718" transform="matrix(0.476, -0.879, 0.879, 0.476, 124.598, 146.426)" opacity="0.1"/>
    <rect id="Rectangle_198" data-name="Rectangle 198" width="4.186" height="8.159" transform="translate(117.969 148.195) rotate(-79.49)" fill="#8ed16f"/>
    <rect id="Rectangle_199" data-name="Rectangle 199" width="4.186" height="8.159" transform="translate(117.969 148.195) rotate(-79.49)" opacity="0.05"/>
    <ellipse id="Ellipse_108" data-name="Ellipse 108" cx="0.858" cy="1.718" rx="0.858" ry="1.718" transform="translate(120.506 147.463) rotate(-79.49)" fill="#8ed16f"/>
    <ellipse id="Ellipse_109" data-name="Ellipse 109" cx="0.858" cy="1.718" rx="0.858" ry="1.718" transform="translate(120.506 147.463) rotate(-79.49)" opacity="0.1"/>
    <rect id="Rectangle_200" data-name="Rectangle 200" width="4.186" height="8.159" transform="translate(118.72 150.665) rotate(-79.49)" fill="#8ed16f"/>
    <ellipse id="Ellipse_110" data-name="Ellipse 110" cx="0.858" cy="1.718" rx="0.858" ry="1.718" transform="translate(121.259 149.934) rotate(-79.49)" fill="#8ed16f"/>
    <ellipse id="Ellipse_111" data-name="Ellipse 111" cx="0.858" cy="1.718" rx="0.858" ry="1.718" transform="translate(121.259 149.934) rotate(-79.49)" opacity="0.1"/>
  </g>
</svg>
