<svg xmlns="http://www.w3.org/2000/svg" width="23.996" height="31.379" viewBox="0 0 23.996 31.379">
  <g id="noun_agreement_1087176" transform="translate(273.37 -323.209)">
    <path id="Path_614" data-name="Path 614" d="M46.15,16H30.46a.923.923,0,0,0-.652.27L24.27,21.808a.923.923,0,0,0-.27.652V45.533a1.848,1.848,0,0,0,1.846,1.846h20.3A1.848,1.848,0,0,0,48,45.533V17.846A1.848,1.848,0,0,0,46.15,16ZM30,18.037V22H26.037Zm-4.615,4.885H30.46a.462.462,0,0,0,.461-.461V17.384H46.15a.462.462,0,0,1,.461.461V45.533a.462.462,0,0,1-.461.461h-20.3a.462.462,0,0,1-.461-.461Zm4.153,2.769A.462.462,0,0,1,30,25.229H42a.461.461,0,0,1,0,.923H30A.462.462,0,0,1,29.537,25.691Zm0,2.307A.462.462,0,0,1,30,27.536H42a.461.461,0,0,1,0,.923H30A.462.462,0,0,1,29.537,28Zm0,2.307A.462.462,0,0,1,30,29.844H42a.461.461,0,0,1,0,.923H30A.462.462,0,0,1,29.537,30.305Zm0,2.307A.462.462,0,0,1,30,32.151H42a.461.461,0,1,1,0,.923H30A.462.462,0,0,1,29.537,32.612Zm0,2.307A.462.462,0,0,1,30,34.458h5.076a.461.461,0,1,1,0,.923H30A.462.462,0,0,1,29.537,34.92Zm0,2.307A.462.462,0,0,1,30,36.765h5.076a.461.461,0,1,1,0,.923H30A.462.462,0,0,1,29.537,37.227Zm10.152-2.769A2.766,2.766,0,0,0,37.414,38.8c-.025.4-.024,1.1-.023,2.36l.007,2.528a.462.462,0,0,0,.67.411l1.624-.819,1.639.819A.46.46,0,0,0,42,43.687V38.755a2.767,2.767,0,0,0-2.307-4.3Zm0,.923a1.846,1.846,0,1,1-1.846,1.846A1.848,1.848,0,0,1,39.689,35.381Zm.206,6.97a.459.459,0,0,0-.414,0l-1.163.587c0-1.144-.006-2.447-.006-3.313a2.742,2.742,0,0,0,2.761,0v3.32Z" transform="translate(-297.37 307.209)" fill="#005b9a"/>
  </g>
</svg>
