<svg xmlns="http://www.w3.org/2000/svg" width="31.454" height="29.726" viewBox="0 0 31.454 29.726">
  <g id="noun_Bank_611040" transform="translate(0 0)">
    <g id="Group_150" data-name="Group 150" transform="translate(0 0)">
      <path id="Path_610" data-name="Path 610" d="M9,22.389V23.76h6.857V22.389H14.486V10.045h1.371V8.674H9v1.371h1.371V22.389Z" transform="translate(3.344 3.222)" fill="#005b9a"/>
      <path id="Path_611" data-name="Path 611" d="M2,22.389V23.76H8.857V22.389H7.486V10.045H8.857V8.674H2v1.371H3.371V22.389Z" transform="translate(0.743 3.222)" fill="#005b9a"/>
      <path id="Path_612" data-name="Path 612" d="M16,22.389V23.76h6.857V22.389H21.486V10.045h1.371V8.674H16v1.371h1.371V22.389Z" transform="translate(5.944 3.222)" fill="#005b9a"/>
      <rect id="Rectangle_210" data-name="Rectangle 210" width="30.173" height="1.371" transform="translate(0.641 28.354)" fill="#005b9a"/>
      <path id="Path_613" data-name="Path 613" d="M30.813,10.525c.754,0,.857-.343.23-.761L16.868.314a2.232,2.232,0,0,0-2.282,0L.41,9.765c-.627.418-.524.761.23.761H30.813ZM15.727,3.667A2.057,2.057,0,1,1,13.67,5.725,2.058,2.058,0,0,1,15.727,3.667Z" transform="translate(0 0)" fill="#005b9a"/>
    </g>
  </g>
</svg>
