<svg xmlns="http://www.w3.org/2000/svg" width="31.702" height="31.136" viewBox="0 0 31.702 31.136">
  <g id="noun_problem_770851" transform="translate(150 269.145)">
    <path id="Path_226" data-name="Path 226" d="M30.044,13.408a1.032,1.032,0,1,1-1.032-1.032A1.032,1.032,0,0,1,30.044,13.408ZM32.7,31.9a1.1,1.1,0,0,1-1.093,1.093H2.084A1.1,1.1,0,0,1,1,31.9c0-5.564,7.016-7.783,10.028-8.481a.081.081,0,0,0,.061-.081V22.158A9.193,9.193,0,0,1,9.556,19.1a6.014,6.014,0,0,1-1.329-2.675c-.307-1.08-.615-2.649.23-3.765l.039-.049c-.055-.323-.1-.647-.123-.97-.382-2.536-.087-4.428.877-5.612a3.2,3.2,0,0,1,2.1-1.19A4.721,4.721,0,0,1,16.42,1.928,28.754,28.754,0,0,0,23,1.876a.22.22,0,0,1,.155.045.207.207,0,0,1,.074.146A2.174,2.174,0,0,1,22.6,3.649c3.526,2.352,3.018,6.993,2.61,8.957l.036.049c.844,1.119.537,2.685.233,3.765A6.141,6.141,0,0,1,24.157,19.1a9.154,9.154,0,0,1-1.533,3.034v1.2a.084.084,0,0,0,.061.081C25.694,24.115,32.7,26.337,32.7,31.9ZM21.592,25.318a2.264,2.264,0,0,1-1.035-1.242,7.5,7.5,0,0,1-1.579.792,6.379,6.379,0,0,1-4.257,0,7.34,7.34,0,0,1-1.585-.789A2.264,2.264,0,0,1,12.1,25.305a5.941,5.941,0,0,0,9.487.013Zm.97-7.5c.113,0,.518-.175,1.012-1.941.388-1.372.223-1.87.094-2.044a.5.5,0,0,0-.469-.162.21.21,0,0,1-.184-.078.207.207,0,0,1-.032-.2v-.042a2.787,2.787,0,0,0-.912-3.047,9.82,9.82,0,0,1-6.03-.818A3.554,3.554,0,0,0,12.7,9.432c-1.753,1.067-1.993,4.021-2,4.05a.207.207,0,0,1-.22.191h-.094a.446.446,0,0,0-.385.168c-.133.175-.294.673.094,2.044.5,1.756.9,1.921,1.012,1.941a.207.207,0,0,1,.191.175,6.542,6.542,0,0,0,4.056,5.03,4.383,4.383,0,0,0,2.937,0A6.691,6.691,0,0,0,22.365,18a.207.207,0,0,1,.2-.184ZM30.2,9.067A3.681,3.681,0,0,0,32.7,5.46a3.723,3.723,0,0,0-3.694-3.6h-.023a3.675,3.675,0,0,0-3.306,2.1,1.029,1.029,0,1,0,1.847.893,1.634,1.634,0,0,1,1.469-.932h0a1.682,1.682,0,0,1,1.656,1.595,1.637,1.637,0,0,1-1.116,1.617,2.264,2.264,0,0,0-1.556,2.119v.877a1.029,1.029,0,0,0,2.054,0V9.241C30.038,9.125,30.18,9.073,30.2,9.067Zm-7.246,6.35h-.411a.162.162,0,0,0-.149.116,2.517,2.517,0,0,1-2.433,1.844,2.546,2.546,0,0,1-2.51-2.264.569.569,0,0,0-.508-.323.56.56,0,0,0-.508.323,2.533,2.533,0,0,1-2.407,2.264h-.107a2.517,2.517,0,0,1-2.429-1.85h0a.142.142,0,0,0-.146-.1h-.417V14.288h.421a.162.162,0,0,0,.149-.116,2.523,2.523,0,0,1,4.671-.479,1.769,1.769,0,0,1,.78-.178,1.8,1.8,0,0,1,.78.178,2.523,2.523,0,0,1,4.671.485h0a.152.152,0,0,0,.146.1h.411Zm-7.608-.576a1.42,1.42,0,1,0-1.407,1.43,1.42,1.42,0,0,0,1.407-1.43Zm6.033,0a1.42,1.42,0,1,0-1.42,1.42A1.42,1.42,0,0,0,21.379,14.841Z" transform="translate(-151 -271)" fill="#005b9a"/>
  </g>
</svg>
