<svg xmlns="http://www.w3.org/2000/svg" width="28.619" height="27.548" viewBox="0 0 28.619 27.548">
  <path id="Path_609" data-name="Path 609" d="M2.769,20.347A1.386,1.386,0,0,0,4.114,19.3l.612-2.415V30.281a.441.441,0,0,0,.441.441h6.416a.441.441,0,0,0,.441-.441V13.49a.441.441,0,0,0-.883,0V29.84H8.815V21.783a.441.441,0,0,0-.883,0V29.84H5.608V13.49a.448.448,0,0,0-.862-.244L3.275,19.088a.5.5,0,0,1-.98-.235l1.033-4.66a5.163,5.163,0,0,1,10.07,0s0,.021,0,.032a2.477,2.477,0,1,0,4.586,0v-.032a5.163,5.163,0,0,1,10.07,0l1.03,4.374a.735.735,0,0,1-.718.9h-.179l-1.5-6.083a.441.441,0,1,0-.856.212l2.059,8.334h-8.5v-.621a3.656,3.656,0,0,0-.294-1.436l1.177-6.3a.441.441,0,0,0-.862-.153L18.4,18.806a3.671,3.671,0,0,0-6.363,2.5v3.677a.441.441,0,0,0,.441.441h1.077l.544,4.9a.441.441,0,0,0,.438.391H16.89a.441.441,0,0,0,.438-.391l.544-4.9h1.077a.441.441,0,0,0,.441-.441V22.812h0v7.469a.441.441,0,0,0,.441.441h6.442a.441.441,0,0,0,.441-.441V22.812h1.747a.441.441,0,0,0,.429-.547l-.474-1.918A1.615,1.615,0,0,0,29.96,18.37l-1.012-4.363a6.01,6.01,0,0,0-5.422-4.692,3.089,3.089,0,1,0-.95,0,6,6,0,0,0-5.216,3.995,2.462,2.462,0,0,0-3.295,0A6,6,0,0,0,8.847,9.316a3.089,3.089,0,1,0-.95,0,6.01,6.01,0,0,0-5.419,4.692L1.416,18.656A1.386,1.386,0,0,0,2.769,20.35Zm15.738,4.2h-1.03a.441.441,0,0,0-.438.391l-.544,4.9H14.931l-.544-4.9a.441.441,0,0,0-.438-.391h-1.03V21.309a2.795,2.795,0,0,1,5.589,0Zm1.765,5.3V22.812h2.262V29.84h-2.25Zm5.533,0H23.429V22.812h2.389ZM20.846,6.268a2.206,2.206,0,1,1,2.206,2.206,2.206,2.206,0,0,1-2.206-2.206Zm-5.133,7.293a1.594,1.594,0,1,1-1.594,1.594,1.594,1.594,0,0,1,1.594-1.594ZM6.167,6.268A2.206,2.206,0,1,1,8.373,8.474,2.206,2.206,0,0,1,6.167,6.268Z" transform="translate(-1.382 -3.175)" fill="#005b9a"/>
</svg>
