<svg xmlns="http://www.w3.org/2000/svg" width="36.496" height="32.555" viewBox="0 0 36.496 32.555">
  <g id="noun_House_2068446" transform="translate(-14 96.5)">
    <g id="Group_149" data-name="Group 149" transform="translate(13 -101)">
      <path id="Path_604" data-name="Path 604" d="M38.685,15.2a2.285,2.285,0,1,0,2.285,2.285A2.291,2.291,0,0,0,38.685,15.2Zm0,3.427a1.142,1.142,0,1,1,1.142-1.142A1.146,1.146,0,0,1,38.685,18.627Z" transform="translate(-15.182 -4.589)" fill="#005b9a"/>
      <path id="Path_605" data-name="Path 605" d="M30.582,37.039V30.471a.54.54,0,0,0-.571-.571H23.271a.54.54,0,0,0-.571.571v6.568a.54.54,0,0,0,.571.571h6.739A.54.54,0,0,0,30.582,37.039Zm-4.512-.571H23.842V34.3H26.07Zm0-3.256H23.842v-2.17H26.07Zm3.37,3.256H27.212V34.3h2.227Zm0-3.256H27.212v-2.17h2.227Z" transform="translate(-9.306 -10.893)" fill="#005b9a"/>
      <path id="Path_606" data-name="Path 606" d="M44.771,37.61h6.739a.54.54,0,0,0,.571-.571V30.471a.54.54,0,0,0-.571-.571H44.771a.54.54,0,0,0-.571.571v6.568A.54.54,0,0,0,44.771,37.61Zm3.941-6.568h2.227v2.17H48.712Zm0,3.313h2.227v2.17H48.712Zm-3.37-3.313H47.57v2.17H45.342Zm0,3.313H47.57v2.17H45.342Z" transform="translate(-18.527 -10.893)" fill="#005b9a"/>
      <path id="Path_607" data-name="Path 607" d="M4.712,29.231v6.682H2.428a.571.571,0,0,0,0,1.142h34.5a.571.571,0,0,0,0-1.142H35.9V18.379l.628.628a.565.565,0,0,0,.8-.8L23.846,4.671a.552.552,0,0,0-.8,0L9.567,18.093a.565.565,0,0,0,.8.8L11,18.265V35.913H5.855V29.231a4.271,4.271,0,0,0,3.712-4.284c0-2.056-1.713-7.882-4.284-7.882S1,22.948,1,24.947A4.364,4.364,0,0,0,4.712,29.231Zm20.961,6.682H21.333V33.457h0v-2.97a2.17,2.17,0,1,1,4.341,0Zm9.138,0h-8V33.971h8ZM23.446,5.871l10.68,10.68H12.766ZM12.137,17.693H34.812V32.886h-8V30.43a3.313,3.313,0,0,0-6.625,0v2.456h-8V17.693Zm0,16.335h8V35.97h-8ZM5.284,18.207c1.485,0,3.141,4.74,3.141,6.739a3.141,3.141,0,0,1-6.283,0C2.142,22.948,3.8,18.207,5.284,18.207Z" fill="#005b9a"/>
    </g>
  </g>
</svg>
